<svg width="337" height="337" viewBox="0 0 337 337" fill="none" xmlns="http://www.w3.org/2000/svg">
<path d="M166.617 116.961C164.822 123.93 158.728 129.13 151.525 132.731C131.105 139.796 114.976 146.593 101.63 153.19C89.8145 159.031 89.9286 177.489 101.782 183.251C115.632 189.984 133.02 196.442 152.333 204.098C157.525 206.156 164.863 211.971 166.69 219.12C172.319 241.148 179.977 264.468 188.41 285.995C194.957 302.707 211.142 302.694 217.72 285.995C226.259 264.318 232.747 240.903 240.07 218.625C241.822 211.746 247.01 206.307 253.701 203.937C271.783 197.532 289.213 190.303 303.422 184.045C316.69 178.201 316.963 159.228 303.861 153.021C289.87 146.392 272.466 138.717 253.614 131.867C246.979 129.456 241.874 124.368 239.516 117.145C231.569 92.8078 226.534 72.1743 218.093 50.7467C211.514 34.0478 194.244 34.5618 187.665 51.2607C179.255 72.6092 173.383 93.8588 166.617 116.961Z" fill="url(#paint0_linear_48402_434)"/>
<path d="M166.617 116.961C164.822 123.93 158.728 129.13 151.525 132.731C131.105 139.796 114.976 146.593 101.63 153.19C89.8145 159.031 89.9286 177.489 101.782 183.251C115.632 189.984 133.02 196.442 152.333 204.098C157.525 206.156 164.863 211.971 166.69 219.12C172.319 241.148 179.977 264.468 188.41 285.995C194.957 302.707 211.142 302.694 217.72 285.995C226.259 264.318 232.747 240.903 240.07 218.625C241.822 211.746 247.01 206.307 253.701 203.937C271.783 197.532 289.213 190.303 303.422 184.045C316.69 178.201 316.963 159.228 303.861 153.021C289.87 146.392 272.466 138.717 253.614 131.867C246.979 129.456 241.874 124.368 239.516 117.145C231.569 92.8078 226.534 72.1743 218.093 50.7467C211.514 34.0478 194.244 34.5618 187.665 51.2607C179.255 72.6092 173.383 93.8588 166.617 116.961Z" fill="url(#paint1_linear_48402_434)"/>
<path d="M166.617 116.961C164.822 123.93 158.728 129.13 151.525 132.731C131.105 139.796 114.976 146.593 101.63 153.19C89.8145 159.031 89.9286 177.489 101.782 183.251C115.632 189.984 133.02 196.442 152.333 204.098C157.525 206.156 164.863 211.971 166.69 219.12C172.319 241.148 179.977 264.468 188.41 285.995C194.957 302.707 211.142 302.694 217.72 285.995C226.259 264.318 232.747 240.903 240.07 218.625C241.822 211.746 247.01 206.307 253.701 203.937C271.783 197.532 289.213 190.303 303.422 184.045C316.69 178.201 316.963 159.228 303.861 153.021C289.87 146.392 272.466 138.717 253.614 131.867C246.979 129.456 241.874 124.368 239.516 117.145C231.569 92.8078 226.534 72.1743 218.093 50.7467C211.514 34.0478 194.244 34.5618 187.665 51.2607C179.255 72.6092 173.383 93.8588 166.617 116.961Z" fill="url(#paint2_radial_48402_434)"/>
<path d="M166.617 116.961C164.822 123.93 158.728 129.13 151.525 132.731C131.105 139.796 114.976 146.593 101.63 153.19C89.8145 159.031 89.9286 177.489 101.782 183.251C115.632 189.984 133.02 196.442 152.333 204.098C157.525 206.156 164.863 211.971 166.69 219.12C172.319 241.148 179.977 264.468 188.41 285.995C194.957 302.707 211.142 302.694 217.72 285.995C226.259 264.318 232.747 240.903 240.07 218.625C241.822 211.746 247.01 206.307 253.701 203.937C271.783 197.532 289.213 190.303 303.422 184.045C316.69 178.201 316.963 159.228 303.861 153.021C289.87 146.392 272.466 138.717 253.614 131.867C246.979 129.456 241.874 124.368 239.516 117.145C231.569 92.8078 226.534 72.1743 218.093 50.7467C211.514 34.0478 194.244 34.5618 187.665 51.2607C179.255 72.6092 173.383 93.8588 166.617 116.961Z" fill="url(#paint3_radial_48402_434)"/>
<path d="M166.617 116.961C164.822 123.93 158.728 129.13 151.525 132.731C131.105 139.796 114.976 146.593 101.63 153.19C89.8145 159.031 89.9286 177.489 101.782 183.251C115.632 189.984 133.02 196.442 152.333 204.098C157.525 206.156 164.863 211.971 166.69 219.12C172.319 241.148 179.977 264.468 188.41 285.995C194.957 302.707 211.142 302.694 217.72 285.995C226.259 264.318 232.747 240.903 240.07 218.625C241.822 211.746 247.01 206.307 253.701 203.937C271.783 197.532 289.213 190.303 303.422 184.045C316.69 178.201 316.963 159.228 303.861 153.021C289.87 146.392 272.466 138.717 253.614 131.867C246.979 129.456 241.874 124.368 239.516 117.145C231.569 92.8078 226.534 72.1743 218.093 50.7467C211.514 34.0478 194.244 34.5618 187.665 51.2607C179.255 72.6092 173.383 93.8588 166.617 116.961Z" fill="url(#paint4_radial_48402_434)"/>
<path d="M166.617 116.961C164.822 123.93 158.728 129.13 151.525 132.731C131.105 139.796 114.976 146.593 101.63 153.19C89.8145 159.031 89.9286 177.489 101.782 183.251C115.632 189.984 133.02 196.442 152.333 204.098C157.525 206.156 164.863 211.971 166.69 219.12C172.319 241.148 179.977 264.468 188.41 285.995C194.957 302.707 211.142 302.694 217.72 285.995C226.259 264.318 232.747 240.903 240.07 218.625C241.822 211.746 247.01 206.307 253.701 203.937C271.783 197.532 289.213 190.303 303.422 184.045C316.69 178.201 316.963 159.228 303.861 153.021C289.87 146.392 272.466 138.717 253.614 131.867C246.979 129.456 241.874 124.368 239.516 117.145C231.569 92.8078 226.534 72.1743 218.093 50.7467C211.514 34.0478 194.244 34.5618 187.665 51.2607C179.255 72.6092 173.383 93.8588 166.617 116.961Z" fill="url(#paint5_radial_48402_434)"/>
<path d="M166.617 116.961C164.822 123.93 158.728 129.13 151.525 132.731C131.105 139.796 114.976 146.593 101.63 153.19C89.8145 159.031 89.9286 177.489 101.782 183.251C115.632 189.984 133.02 196.442 152.333 204.098C157.525 206.156 164.863 211.971 166.69 219.12C172.319 241.148 179.977 264.468 188.41 285.995C194.957 302.707 211.142 302.694 217.72 285.995C226.259 264.318 232.747 240.903 240.07 218.625C241.822 211.746 247.01 206.307 253.701 203.937C271.783 197.532 289.213 190.303 303.422 184.045C316.69 178.201 316.963 159.228 303.861 153.021C289.87 146.392 272.466 138.717 253.614 131.867C246.979 129.456 241.874 124.368 239.516 117.145C231.569 92.8078 226.534 72.1743 218.093 50.7467C211.514 34.0478 194.244 34.5618 187.665 51.2607C179.255 72.6092 173.383 93.8588 166.617 116.961Z" fill="url(#paint6_radial_48402_434)"/>
<path d="M166.617 116.961C164.822 123.93 158.728 129.13 151.525 132.731C131.105 139.796 114.976 146.593 101.63 153.19C89.8145 159.031 89.9286 177.489 101.782 183.251C115.632 189.984 133.02 196.442 152.333 204.098C157.525 206.156 164.863 211.971 166.69 219.12C172.319 241.148 179.977 264.468 188.41 285.995C194.957 302.707 211.142 302.694 217.72 285.995C226.259 264.318 232.747 240.903 240.07 218.625C241.822 211.746 247.01 206.307 253.701 203.937C271.783 197.532 289.213 190.303 303.422 184.045C316.69 178.201 316.963 159.228 303.861 153.021C289.87 146.392 272.466 138.717 253.614 131.867C246.979 129.456 241.874 124.368 239.516 117.145C231.569 92.8078 226.534 72.1743 218.093 50.7467C211.514 34.0478 194.244 34.5618 187.665 51.2607C179.255 72.6092 173.383 93.8588 166.617 116.961Z" fill="url(#paint7_radial_48402_434)"/>
<path d="M166.617 116.961C164.822 123.93 158.728 129.13 151.525 132.731C131.105 139.796 114.976 146.593 101.63 153.19C89.8145 159.031 89.9286 177.489 101.782 183.251C115.632 189.984 133.02 196.442 152.333 204.098C157.525 206.156 164.863 211.971 166.69 219.12C172.319 241.148 179.977 264.468 188.41 285.995C194.957 302.707 211.142 302.694 217.72 285.995C226.259 264.318 232.747 240.903 240.07 218.625C241.822 211.746 247.01 206.307 253.701 203.937C271.783 197.532 289.213 190.303 303.422 184.045C316.69 178.201 316.963 159.228 303.861 153.021C289.87 146.392 272.466 138.717 253.614 131.867C246.979 129.456 241.874 124.368 239.516 117.145C231.569 92.8078 226.534 72.1743 218.093 50.7467C211.514 34.0478 194.244 34.5618 187.665 51.2607C179.255 72.6092 173.383 93.8588 166.617 116.961Z" fill="url(#paint8_radial_48402_434)"/>
<path d="M166.617 116.961C164.822 123.93 158.728 129.13 151.525 132.731C131.105 139.796 114.976 146.593 101.63 153.19C89.8145 159.031 89.9286 177.489 101.782 183.251C115.632 189.984 133.02 196.442 152.333 204.098C157.525 206.156 164.863 211.971 166.69 219.12C172.319 241.148 179.977 264.468 188.41 285.995C194.957 302.707 211.142 302.694 217.72 285.995C226.259 264.318 232.747 240.903 240.07 218.625C241.822 211.746 247.01 206.307 253.701 203.937C271.783 197.532 289.213 190.303 303.422 184.045C316.69 178.201 316.963 159.228 303.861 153.021C289.87 146.392 272.466 138.717 253.614 131.867C246.979 129.456 241.874 124.368 239.516 117.145C231.569 92.8078 226.534 72.1743 218.093 50.7467C211.514 34.0478 194.244 34.5618 187.665 51.2607C179.255 72.6092 173.383 93.8588 166.617 116.961Z" fill="url(#paint9_radial_48402_434)"/>
<path d="M166.617 116.961C164.822 123.93 158.728 129.13 151.525 132.731C131.105 139.796 114.976 146.593 101.63 153.19C89.8145 159.031 89.9286 177.489 101.782 183.251C115.632 189.984 133.02 196.442 152.333 204.098C157.525 206.156 164.863 211.971 166.69 219.12C172.319 241.148 179.977 264.468 188.41 285.995C194.957 302.707 211.142 302.694 217.72 285.995C226.259 264.318 232.747 240.903 240.07 218.625C241.822 211.746 247.01 206.307 253.701 203.937C271.783 197.532 289.213 190.303 303.422 184.045C316.69 178.201 316.963 159.228 303.861 153.021C289.87 146.392 272.466 138.717 253.614 131.867C246.979 129.456 241.874 124.368 239.516 117.145C231.569 92.8078 226.534 72.1743 218.093 50.7467C211.514 34.0478 194.244 34.5618 187.665 51.2607C179.255 72.6092 173.383 93.8588 166.617 116.961Z" fill="url(#paint10_radial_48402_434)"/>
<path d="M166.617 116.961C164.822 123.93 158.728 129.13 151.525 132.731C131.105 139.796 114.976 146.593 101.63 153.19C89.8145 159.031 89.9286 177.489 101.782 183.251C115.632 189.984 133.02 196.442 152.333 204.098C157.525 206.156 164.863 211.971 166.69 219.12C172.319 241.148 179.977 264.468 188.41 285.995C194.957 302.707 211.142 302.694 217.72 285.995C226.259 264.318 232.747 240.903 240.07 218.625C241.822 211.746 247.01 206.307 253.701 203.937C271.783 197.532 289.213 190.303 303.422 184.045C316.69 178.201 316.963 159.228 303.861 153.021C289.87 146.392 272.466 138.717 253.614 131.867C246.979 129.456 241.874 124.368 239.516 117.145C231.569 92.8078 226.534 72.1743 218.093 50.7467C211.514 34.0478 194.244 34.5618 187.665 51.2607C179.255 72.6092 173.383 93.8588 166.617 116.961Z" fill="url(#paint11_radial_48402_434)"/>
<path d="M166.617 116.961C164.822 123.93 158.728 129.13 151.525 132.731C131.105 139.796 114.976 146.593 101.63 153.19C89.8145 159.031 89.9286 177.489 101.782 183.251C115.632 189.984 133.02 196.442 152.333 204.098C157.525 206.156 164.863 211.971 166.69 219.12C172.319 241.148 179.977 264.468 188.41 285.995C194.957 302.707 211.142 302.694 217.72 285.995C226.259 264.318 232.747 240.903 240.07 218.625C241.822 211.746 247.01 206.307 253.701 203.937C271.783 197.532 289.213 190.303 303.422 184.045C316.69 178.201 316.963 159.228 303.861 153.021C289.87 146.392 272.466 138.717 253.614 131.867C246.979 129.456 241.874 124.368 239.516 117.145C231.569 92.8078 226.534 72.1743 218.093 50.7467C211.514 34.0478 194.244 34.5618 187.665 51.2607C179.255 72.6092 173.383 93.8588 166.617 116.961Z" fill="url(#paint12_radial_48402_434)"/>
<path d="M166.617 116.961C164.822 123.93 158.728 129.13 151.525 132.731C131.105 139.796 114.976 146.593 101.63 153.19C89.8145 159.031 89.9286 177.489 101.782 183.251C115.632 189.984 133.02 196.442 152.333 204.098C157.525 206.156 164.863 211.971 166.69 219.12C172.319 241.148 179.977 264.468 188.41 285.995C194.957 302.707 211.142 302.694 217.72 285.995C226.259 264.318 232.747 240.903 240.07 218.625C241.822 211.746 247.01 206.307 253.701 203.937C271.783 197.532 289.213 190.303 303.422 184.045C316.69 178.201 316.963 159.228 303.861 153.021C289.87 146.392 272.466 138.717 253.614 131.867C246.979 129.456 241.874 124.368 239.516 117.145C231.569 92.8078 226.534 72.1743 218.093 50.7467C211.514 34.0478 194.244 34.5618 187.665 51.2607C179.255 72.6092 173.383 93.8588 166.617 116.961Z" fill="url(#paint13_radial_48402_434)"/>
<path d="M166.617 116.961C164.822 123.93 158.728 129.13 151.525 132.731C131.105 139.796 114.976 146.593 101.63 153.19C89.8145 159.031 89.9286 177.489 101.782 183.251C115.632 189.984 133.02 196.442 152.333 204.098C157.525 206.156 164.863 211.971 166.69 219.12C172.319 241.148 179.977 264.468 188.41 285.995C194.957 302.707 211.142 302.694 217.72 285.995C226.259 264.318 232.747 240.903 240.07 218.625C241.822 211.746 247.01 206.307 253.701 203.937C271.783 197.532 289.213 190.303 303.422 184.045C316.69 178.201 316.963 159.228 303.861 153.021C289.87 146.392 272.466 138.717 253.614 131.867C246.979 129.456 241.874 124.368 239.516 117.145C231.569 92.8078 226.534 72.1743 218.093 50.7467C211.514 34.0478 194.244 34.5618 187.665 51.2607C179.255 72.6092 173.383 93.8588 166.617 116.961Z" fill="url(#paint14_radial_48402_434)"/>
<path d="M166.617 116.961C164.822 123.93 158.728 129.13 151.525 132.731C131.105 139.796 114.976 146.593 101.63 153.19C89.8145 159.031 89.9286 177.489 101.782 183.251C115.632 189.984 133.02 196.442 152.333 204.098C157.525 206.156 164.863 211.971 166.69 219.12C172.319 241.148 179.977 264.468 188.41 285.995C194.957 302.707 211.142 302.694 217.72 285.995C226.259 264.318 232.747 240.903 240.07 218.625C241.822 211.746 247.01 206.307 253.701 203.937C271.783 197.532 289.213 190.303 303.422 184.045C316.69 178.201 316.963 159.228 303.861 153.021C289.87 146.392 272.466 138.717 253.614 131.867C246.979 129.456 241.874 124.368 239.516 117.145C231.569 92.8078 226.534 72.1743 218.093 50.7467C211.514 34.0478 194.244 34.5618 187.665 51.2607C179.255 72.6092 173.383 93.8588 166.617 116.961Z" fill="url(#paint15_radial_48402_434)"/>
<path d="M166.617 116.961C164.822 123.93 158.728 129.13 151.525 132.731C131.105 139.796 114.976 146.593 101.63 153.19C89.8145 159.031 89.9286 177.489 101.782 183.251C115.632 189.984 133.02 196.442 152.333 204.098C157.525 206.156 164.863 211.971 166.69 219.12C172.319 241.148 179.977 264.468 188.41 285.995C194.957 302.707 211.142 302.694 217.72 285.995C226.259 264.318 232.747 240.903 240.07 218.625C241.822 211.746 247.01 206.307 253.701 203.937C271.783 197.532 289.213 190.303 303.422 184.045C316.69 178.201 316.963 159.228 303.861 153.021C289.87 146.392 272.466 138.717 253.614 131.867C246.979 129.456 241.874 124.368 239.516 117.145C231.569 92.8078 226.534 72.1743 218.093 50.7467C211.514 34.0478 194.244 34.5618 187.665 51.2607C179.255 72.6092 173.383 93.8588 166.617 116.961Z" fill="url(#paint16_radial_48402_434)" fill-opacity="0.8"/>
<path d="M166.617 116.961C164.822 123.93 158.728 129.13 151.525 132.731C131.105 139.796 114.976 146.593 101.63 153.19C89.8145 159.031 89.9286 177.489 101.782 183.251C115.632 189.984 133.02 196.442 152.333 204.098C157.525 206.156 164.863 211.971 166.69 219.12C172.319 241.148 179.977 264.468 188.41 285.995C194.957 302.707 211.142 302.694 217.72 285.995C226.259 264.318 232.747 240.903 240.07 218.625C241.822 211.746 247.01 206.307 253.701 203.937C271.783 197.532 289.213 190.303 303.422 184.045C316.69 178.201 316.963 159.228 303.861 153.021C289.87 146.392 272.466 138.717 253.614 131.867C246.979 129.456 241.874 124.368 239.516 117.145C231.569 92.8078 226.534 72.1743 218.093 50.7467C211.514 34.0478 194.244 34.5618 187.665 51.2607C179.255 72.6092 173.383 93.8588 166.617 116.961Z" fill="url(#paint17_radial_48402_434)" fill-opacity="0.8"/>
<path d="M166.617 116.961C164.822 123.93 158.728 129.13 151.525 132.731C131.105 139.796 114.976 146.593 101.63 153.19C89.8145 159.031 89.9286 177.489 101.782 183.251C115.632 189.984 133.02 196.442 152.333 204.098C157.525 206.156 164.863 211.971 166.69 219.12C172.319 241.148 179.977 264.468 188.41 285.995C194.957 302.707 211.142 302.694 217.72 285.995C226.259 264.318 232.747 240.903 240.07 218.625C241.822 211.746 247.01 206.307 253.701 203.937C271.783 197.532 289.213 190.303 303.422 184.045C316.69 178.201 316.963 159.228 303.861 153.021C289.87 146.392 272.466 138.717 253.614 131.867C246.979 129.456 241.874 124.368 239.516 117.145C231.569 92.8078 226.534 72.1743 218.093 50.7467C211.514 34.0478 194.244 34.5618 187.665 51.2607C179.255 72.6092 173.383 93.8588 166.617 116.961Z" fill="url(#paint18_radial_48402_434)" fill-opacity="0.8"/>
<path d="M166.617 116.961C164.822 123.93 158.728 129.13 151.525 132.731C131.105 139.796 114.976 146.593 101.63 153.19C89.8145 159.031 89.9286 177.489 101.782 183.251C115.632 189.984 133.02 196.442 152.333 204.098C157.525 206.156 164.863 211.971 166.69 219.12C172.319 241.148 179.977 264.468 188.41 285.995C194.957 302.707 211.142 302.694 217.72 285.995C226.259 264.318 232.747 240.903 240.07 218.625C241.822 211.746 247.01 206.307 253.701 203.937C271.783 197.532 289.213 190.303 303.422 184.045C316.69 178.201 316.963 159.228 303.861 153.021C289.87 146.392 272.466 138.717 253.614 131.867C246.979 129.456 241.874 124.368 239.516 117.145C231.569 92.8078 226.534 72.1743 218.093 50.7467C211.514 34.0478 194.244 34.5618 187.665 51.2607C179.255 72.6092 173.383 93.8588 166.617 116.961Z" fill="url(#paint19_radial_48402_434)" fill-opacity="0.8"/>
<path d="M166.617 116.961C164.822 123.93 158.728 129.13 151.525 132.731C131.105 139.796 114.976 146.593 101.63 153.19C89.8145 159.031 89.9286 177.489 101.782 183.251C115.632 189.984 133.02 196.442 152.333 204.098C157.525 206.156 164.863 211.971 166.69 219.12C172.319 241.148 179.977 264.468 188.41 285.995C194.957 302.707 211.142 302.694 217.72 285.995C226.259 264.318 232.747 240.903 240.07 218.625C241.822 211.746 247.01 206.307 253.701 203.937C271.783 197.532 289.213 190.303 303.422 184.045C316.69 178.201 316.963 159.228 303.861 153.021C289.87 146.392 272.466 138.717 253.614 131.867C246.979 129.456 241.874 124.368 239.516 117.145C231.569 92.8078 226.534 72.1743 218.093 50.7467C211.514 34.0478 194.244 34.5618 187.665 51.2607C179.255 72.6092 173.383 93.8588 166.617 116.961Z" fill="url(#paint20_radial_48402_434)" fill-opacity="0.8"/>
<path d="M166.617 116.961C164.822 123.93 158.728 129.13 151.525 132.731C131.105 139.796 114.976 146.593 101.63 153.19C89.8145 159.031 89.9286 177.489 101.782 183.251C115.632 189.984 133.02 196.442 152.333 204.098C157.525 206.156 164.863 211.971 166.69 219.12C172.319 241.148 179.977 264.468 188.41 285.995C194.957 302.707 211.142 302.694 217.72 285.995C226.259 264.318 232.747 240.903 240.07 218.625C241.822 211.746 247.01 206.307 253.701 203.937C271.783 197.532 289.213 190.303 303.422 184.045C316.69 178.201 316.963 159.228 303.861 153.021C289.87 146.392 272.466 138.717 253.614 131.867C246.979 129.456 241.874 124.368 239.516 117.145C231.569 92.8078 226.534 72.1743 218.093 50.7467C211.514 34.0478 194.244 34.5618 187.665 51.2607C179.255 72.6092 173.383 93.8588 166.617 116.961Z" fill="url(#paint21_radial_48402_434)" fill-opacity="0.8"/>
<path d="M166.617 116.961C164.822 123.93 158.728 129.13 151.525 132.731C131.105 139.796 114.976 146.593 101.63 153.19C89.8145 159.031 89.9286 177.489 101.782 183.251C115.632 189.984 133.02 196.442 152.333 204.098C157.525 206.156 164.863 211.971 166.69 219.12C172.319 241.148 179.977 264.468 188.41 285.995C194.957 302.707 211.142 302.694 217.72 285.995C226.259 264.318 232.747 240.903 240.07 218.625C241.822 211.746 247.01 206.307 253.701 203.937C271.783 197.532 289.213 190.303 303.422 184.045C316.69 178.201 316.963 159.228 303.861 153.021C289.87 146.392 272.466 138.717 253.614 131.867C246.979 129.456 241.874 124.368 239.516 117.145C231.569 92.8078 226.534 72.1743 218.093 50.7467C211.514 34.0478 194.244 34.5618 187.665 51.2607C179.255 72.6092 173.383 93.8588 166.617 116.961Z" fill="url(#paint22_radial_48402_434)" fill-opacity="0.8"/>
<path d="M166.617 116.961C164.822 123.93 158.728 129.13 151.525 132.731C131.105 139.796 114.976 146.593 101.63 153.19C89.8145 159.031 89.9286 177.489 101.782 183.251C115.632 189.984 133.02 196.442 152.333 204.098C157.525 206.156 164.863 211.971 166.69 219.12C172.319 241.148 179.977 264.468 188.41 285.995C194.957 302.707 211.142 302.694 217.72 285.995C226.259 264.318 232.747 240.903 240.07 218.625C241.822 211.746 247.01 206.307 253.701 203.937C271.783 197.532 289.213 190.303 303.422 184.045C316.69 178.201 316.963 159.228 303.861 153.021C289.87 146.392 272.466 138.717 253.614 131.867C246.979 129.456 241.874 124.368 239.516 117.145C231.569 92.8078 226.534 72.1743 218.093 50.7467C211.514 34.0478 194.244 34.5618 187.665 51.2607C179.255 72.6092 173.383 93.8588 166.617 116.961Z" fill="url(#paint23_radial_48402_434)" fill-opacity="0.8"/>
<path d="M166.617 116.961C164.822 123.93 158.728 129.13 151.525 132.731C131.105 139.796 114.976 146.593 101.63 153.19C89.8145 159.031 89.9286 177.489 101.782 183.251C115.632 189.984 133.02 196.442 152.333 204.098C157.525 206.156 164.863 211.971 166.69 219.12C172.319 241.148 179.977 264.468 188.41 285.995C194.957 302.707 211.142 302.694 217.72 285.995C226.259 264.318 232.747 240.903 240.07 218.625C241.822 211.746 247.01 206.307 253.701 203.937C271.783 197.532 289.213 190.303 303.422 184.045C316.69 178.201 316.963 159.228 303.861 153.021C289.87 146.392 272.466 138.717 253.614 131.867C246.979 129.456 241.874 124.368 239.516 117.145C231.569 92.8078 226.534 72.1743 218.093 50.7467C211.514 34.0478 194.244 34.5618 187.665 51.2607C179.255 72.6092 173.383 93.8588 166.617 116.961Z" fill="url(#paint24_radial_48402_434)"/>
<path d="M166.617 116.961C164.822 123.93 158.728 129.13 151.525 132.731C131.105 139.796 114.976 146.593 101.63 153.19C89.8145 159.031 89.9286 177.489 101.782 183.251C115.632 189.984 133.02 196.442 152.333 204.098C157.525 206.156 164.863 211.971 166.69 219.12C172.319 241.148 179.977 264.468 188.41 285.995C194.957 302.707 211.142 302.694 217.72 285.995C226.259 264.318 232.747 240.903 240.07 218.625C241.822 211.746 247.01 206.307 253.701 203.937C271.783 197.532 289.213 190.303 303.422 184.045C316.69 178.201 316.963 159.228 303.861 153.021C289.87 146.392 272.466 138.717 253.614 131.867C246.979 129.456 241.874 124.368 239.516 117.145C231.569 92.8078 226.534 72.1743 218.093 50.7467C211.514 34.0478 194.244 34.5618 187.665 51.2607C179.255 72.6092 173.383 93.8588 166.617 116.961Z" fill="url(#paint25_radial_48402_434)"/>
<path d="M166.617 116.961C164.822 123.93 158.728 129.13 151.525 132.731C131.105 139.796 114.976 146.593 101.63 153.19C89.8145 159.031 89.9286 177.489 101.782 183.251C115.632 189.984 133.02 196.442 152.333 204.098C157.525 206.156 164.863 211.971 166.69 219.12C172.319 241.148 179.977 264.468 188.41 285.995C194.957 302.707 211.142 302.694 217.72 285.995C226.259 264.318 232.747 240.903 240.07 218.625C241.822 211.746 247.01 206.307 253.701 203.937C271.783 197.532 289.213 190.303 303.422 184.045C316.69 178.201 316.963 159.228 303.861 153.021C289.87 146.392 272.466 138.717 253.614 131.867C246.979 129.456 241.874 124.368 239.516 117.145C231.569 92.8078 226.534 72.1743 218.093 50.7467C211.514 34.0478 194.244 34.5618 187.665 51.2607C179.255 72.6092 173.383 93.8588 166.617 116.961Z" fill="url(#paint26_radial_48402_434)"/>
<path d="M166.617 116.961C164.822 123.93 158.728 129.13 151.525 132.731C131.105 139.796 114.976 146.593 101.63 153.19C89.8145 159.031 89.9286 177.489 101.782 183.251C115.632 189.984 133.02 196.442 152.333 204.098C157.525 206.156 164.863 211.971 166.69 219.12C172.319 241.148 179.977 264.468 188.41 285.995C194.957 302.707 211.142 302.694 217.72 285.995C226.259 264.318 232.747 240.903 240.07 218.625C241.822 211.746 247.01 206.307 253.701 203.937C271.783 197.532 289.213 190.303 303.422 184.045C316.69 178.201 316.963 159.228 303.861 153.021C289.87 146.392 272.466 138.717 253.614 131.867C246.979 129.456 241.874 124.368 239.516 117.145C231.569 92.8078 226.534 72.1743 218.093 50.7467C211.514 34.0478 194.244 34.5618 187.665 51.2607C179.255 72.6092 173.383 93.8588 166.617 116.961Z" fill="url(#paint27_radial_48402_434)"/>
<path d="M166.617 116.961C164.822 123.93 158.728 129.13 151.525 132.731C131.105 139.796 114.976 146.593 101.63 153.19C89.8145 159.031 89.9286 177.489 101.782 183.251C115.632 189.984 133.02 196.442 152.333 204.098C157.525 206.156 164.863 211.971 166.69 219.12C172.319 241.148 179.977 264.468 188.41 285.995C194.957 302.707 211.142 302.694 217.72 285.995C226.259 264.318 232.747 240.903 240.07 218.625C241.822 211.746 247.01 206.307 253.701 203.937C271.783 197.532 289.213 190.303 303.422 184.045C316.69 178.201 316.963 159.228 303.861 153.021C289.87 146.392 272.466 138.717 253.614 131.867C246.979 129.456 241.874 124.368 239.516 117.145C231.569 92.8078 226.534 72.1743 218.093 50.7467C211.514 34.0478 194.244 34.5618 187.665 51.2607C179.255 72.6092 173.383 93.8588 166.617 116.961Z" fill="url(#paint28_radial_48402_434)"/>
<path d="M166.617 116.961C164.822 123.93 158.728 129.13 151.525 132.731C131.105 139.796 114.976 146.593 101.63 153.19C89.8145 159.031 89.9286 177.489 101.782 183.251C115.632 189.984 133.02 196.442 152.333 204.098C157.525 206.156 164.863 211.971 166.69 219.12C172.319 241.148 179.977 264.468 188.41 285.995C194.957 302.707 211.142 302.694 217.72 285.995C226.259 264.318 232.747 240.903 240.07 218.625C241.822 211.746 247.01 206.307 253.701 203.937C271.783 197.532 289.213 190.303 303.422 184.045C316.69 178.201 316.963 159.228 303.861 153.021C289.87 146.392 272.466 138.717 253.614 131.867C246.979 129.456 241.874 124.368 239.516 117.145C231.569 92.8078 226.534 72.1743 218.093 50.7467C211.514 34.0478 194.244 34.5618 187.665 51.2607C179.255 72.6092 173.383 93.8588 166.617 116.961Z" fill="url(#paint29_radial_48402_434)"/>
<path d="M81.807 61.2536C81.2293 63.4968 79.268 65.1702 76.9496 66.3294C70.3773 68.6034 65.186 70.7909 60.8904 72.9144C57.0876 74.7942 57.1243 80.735 60.9394 82.5897C65.3971 84.7568 70.9937 86.8352 77.2095 89.2992C78.8807 89.9617 81.2425 91.8335 81.8305 94.1342C83.6422 101.224 86.1072 108.73 88.8214 115.659C90.9285 121.037 96.1376 121.033 98.2549 115.659C101.003 108.682 103.092 101.145 105.448 93.9749C106.012 91.7611 107.682 90.0104 109.836 89.2475C115.655 87.1859 121.266 84.8592 125.839 82.845C130.109 80.9641 130.197 74.8576 125.98 72.8598C121.477 70.7264 115.875 68.2559 109.808 66.0512C107.672 65.2752 106.029 63.6376 105.27 61.3129C102.712 53.4798 101.092 46.8388 98.3748 39.9422C96.2574 34.5675 90.699 34.7329 88.5816 40.1076C85.8746 46.9787 83.9848 53.8181 81.807 61.2536Z" fill="url(#paint30_linear_48402_434)"/>
<path d="M81.807 61.2536C81.2293 63.4968 79.268 65.1702 76.9496 66.3294C70.3773 68.6034 65.186 70.7909 60.8904 72.9144C57.0876 74.7942 57.1243 80.735 60.9394 82.5897C65.3971 84.7568 70.9937 86.8352 77.2095 89.2992C78.8807 89.9617 81.2425 91.8335 81.8305 94.1342C83.6422 101.224 86.1072 108.73 88.8214 115.659C90.9285 121.037 96.1376 121.033 98.2549 115.659C101.003 108.682 103.092 101.145 105.448 93.9749C106.012 91.7611 107.682 90.0104 109.836 89.2475C115.655 87.1859 121.266 84.8592 125.839 82.845C130.109 80.9641 130.197 74.8576 125.98 72.8598C121.477 70.7264 115.875 68.2559 109.808 66.0512C107.672 65.2752 106.029 63.6376 105.27 61.3129C102.712 53.4798 101.092 46.8388 98.3748 39.9422C96.2574 34.5675 90.699 34.7329 88.5816 40.1076C85.8746 46.9787 83.9848 53.8181 81.807 61.2536Z" fill="url(#paint31_linear_48402_434)"/>
<path d="M81.807 61.2536C81.2293 63.4968 79.268 65.1702 76.9496 66.3294C70.3773 68.6034 65.186 70.7909 60.8904 72.9144C57.0876 74.7942 57.1243 80.735 60.9394 82.5897C65.3971 84.7568 70.9937 86.8352 77.2095 89.2992C78.8807 89.9617 81.2425 91.8335 81.8305 94.1342C83.6422 101.224 86.1072 108.73 88.8214 115.659C90.9285 121.037 96.1376 121.033 98.2549 115.659C101.003 108.682 103.092 101.145 105.448 93.9749C106.012 91.7611 107.682 90.0104 109.836 89.2475C115.655 87.1859 121.266 84.8592 125.839 82.845C130.109 80.9641 130.197 74.8576 125.98 72.8598C121.477 70.7264 115.875 68.2559 109.808 66.0512C107.672 65.2752 106.029 63.6376 105.27 61.3129C102.712 53.4798 101.092 46.8388 98.3748 39.9422C96.2574 34.5675 90.699 34.7329 88.5816 40.1076C85.8746 46.9787 83.9848 53.8181 81.807 61.2536Z" fill="url(#paint32_radial_48402_434)"/>
<path d="M81.807 61.2536C81.2293 63.4968 79.268 65.1702 76.9496 66.3294C70.3773 68.6034 65.186 70.7909 60.8904 72.9144C57.0876 74.7942 57.1243 80.735 60.9394 82.5897C65.3971 84.7568 70.9937 86.8352 77.2095 89.2992C78.8807 89.9617 81.2425 91.8335 81.8305 94.1342C83.6422 101.224 86.1072 108.73 88.8214 115.659C90.9285 121.037 96.1376 121.033 98.2549 115.659C101.003 108.682 103.092 101.145 105.448 93.9749C106.012 91.7611 107.682 90.0104 109.836 89.2475C115.655 87.1859 121.266 84.8592 125.839 82.845C130.109 80.9641 130.197 74.8576 125.98 72.8598C121.477 70.7264 115.875 68.2559 109.808 66.0512C107.672 65.2752 106.029 63.6376 105.27 61.3129C102.712 53.4798 101.092 46.8388 98.3748 39.9422C96.2574 34.5675 90.699 34.7329 88.5816 40.1076C85.8746 46.9787 83.9848 53.8181 81.807 61.2536Z" fill="url(#paint33_radial_48402_434)"/>
<path d="M81.807 61.2536C81.2293 63.4968 79.268 65.1702 76.9496 66.3294C70.3773 68.6034 65.186 70.7909 60.8904 72.9144C57.0876 74.7942 57.1243 80.735 60.9394 82.5897C65.3971 84.7568 70.9937 86.8352 77.2095 89.2992C78.8807 89.9617 81.2425 91.8335 81.8305 94.1342C83.6422 101.224 86.1072 108.73 88.8214 115.659C90.9285 121.037 96.1376 121.033 98.2549 115.659C101.003 108.682 103.092 101.145 105.448 93.9749C106.012 91.7611 107.682 90.0104 109.836 89.2475C115.655 87.1859 121.266 84.8592 125.839 82.845C130.109 80.9641 130.197 74.8576 125.98 72.8598C121.477 70.7264 115.875 68.2559 109.808 66.0512C107.672 65.2752 106.029 63.6376 105.27 61.3129C102.712 53.4798 101.092 46.8388 98.3748 39.9422C96.2574 34.5675 90.699 34.7329 88.5816 40.1076C85.8746 46.9787 83.9848 53.8181 81.807 61.2536Z" fill="url(#paint34_radial_48402_434)"/>
<path d="M81.807 61.2536C81.2293 63.4968 79.268 65.1702 76.9496 66.3294C70.3773 68.6034 65.186 70.7909 60.8904 72.9144C57.0876 74.7942 57.1243 80.735 60.9394 82.5897C65.3971 84.7568 70.9937 86.8352 77.2095 89.2992C78.8807 89.9617 81.2425 91.8335 81.8305 94.1342C83.6422 101.224 86.1072 108.73 88.8214 115.659C90.9285 121.037 96.1376 121.033 98.2549 115.659C101.003 108.682 103.092 101.145 105.448 93.9749C106.012 91.7611 107.682 90.0104 109.836 89.2475C115.655 87.1859 121.266 84.8592 125.839 82.845C130.109 80.9641 130.197 74.8576 125.98 72.8598C121.477 70.7264 115.875 68.2559 109.808 66.0512C107.672 65.2752 106.029 63.6376 105.27 61.3129C102.712 53.4798 101.092 46.8388 98.3748 39.9422C96.2574 34.5675 90.699 34.7329 88.5816 40.1076C85.8746 46.9787 83.9848 53.8181 81.807 61.2536Z" fill="url(#paint35_radial_48402_434)"/>
<path d="M81.807 61.2536C81.2293 63.4968 79.268 65.1702 76.9496 66.3294C70.3773 68.6034 65.186 70.7909 60.8904 72.9144C57.0876 74.7942 57.1243 80.735 60.9394 82.5897C65.3971 84.7568 70.9937 86.8352 77.2095 89.2992C78.8807 89.9617 81.2425 91.8335 81.8305 94.1342C83.6422 101.224 86.1072 108.73 88.8214 115.659C90.9285 121.037 96.1376 121.033 98.2549 115.659C101.003 108.682 103.092 101.145 105.448 93.9749C106.012 91.7611 107.682 90.0104 109.836 89.2475C115.655 87.1859 121.266 84.8592 125.839 82.845C130.109 80.9641 130.197 74.8576 125.98 72.8598C121.477 70.7264 115.875 68.2559 109.808 66.0512C107.672 65.2752 106.029 63.6376 105.27 61.3129C102.712 53.4798 101.092 46.8388 98.3748 39.9422C96.2574 34.5675 90.699 34.7329 88.5816 40.1076C85.8746 46.9787 83.9848 53.8181 81.807 61.2536Z" fill="url(#paint36_radial_48402_434)"/>
<path d="M81.807 61.2536C81.2293 63.4968 79.268 65.1702 76.9496 66.3294C70.3773 68.6034 65.186 70.7909 60.8904 72.9144C57.0876 74.7942 57.1243 80.735 60.9394 82.5897C65.3971 84.7568 70.9937 86.8352 77.2095 89.2992C78.8807 89.9617 81.2425 91.8335 81.8305 94.1342C83.6422 101.224 86.1072 108.73 88.8214 115.659C90.9285 121.037 96.1376 121.033 98.2549 115.659C101.003 108.682 103.092 101.145 105.448 93.9749C106.012 91.7611 107.682 90.0104 109.836 89.2475C115.655 87.1859 121.266 84.8592 125.839 82.845C130.109 80.9641 130.197 74.8576 125.98 72.8598C121.477 70.7264 115.875 68.2559 109.808 66.0512C107.672 65.2752 106.029 63.6376 105.27 61.3129C102.712 53.4798 101.092 46.8388 98.3748 39.9422C96.2574 34.5675 90.699 34.7329 88.5816 40.1076C85.8746 46.9787 83.9848 53.8181 81.807 61.2536Z" fill="url(#paint37_radial_48402_434)"/>
<path d="M81.807 61.2536C81.2293 63.4968 79.268 65.1702 76.9496 66.3294C70.3773 68.6034 65.186 70.7909 60.8904 72.9144C57.0876 74.7942 57.1243 80.735 60.9394 82.5897C65.3971 84.7568 70.9937 86.8352 77.2095 89.2992C78.8807 89.9617 81.2425 91.8335 81.8305 94.1342C83.6422 101.224 86.1072 108.73 88.8214 115.659C90.9285 121.037 96.1376 121.033 98.2549 115.659C101.003 108.682 103.092 101.145 105.448 93.9749C106.012 91.7611 107.682 90.0104 109.836 89.2475C115.655 87.1859 121.266 84.8592 125.839 82.845C130.109 80.9641 130.197 74.8576 125.98 72.8598C121.477 70.7264 115.875 68.2559 109.808 66.0512C107.672 65.2752 106.029 63.6376 105.27 61.3129C102.712 53.4798 101.092 46.8388 98.3748 39.9422C96.2574 34.5675 90.699 34.7329 88.5816 40.1076C85.8746 46.9787 83.9848 53.8181 81.807 61.2536Z" fill="url(#paint38_radial_48402_434)"/>
<path d="M81.807 61.2536C81.2293 63.4968 79.268 65.1702 76.9496 66.3294C70.3773 68.6034 65.186 70.7909 60.8904 72.9144C57.0876 74.7942 57.1243 80.735 60.9394 82.5897C65.3971 84.7568 70.9937 86.8352 77.2095 89.2992C78.8807 89.9617 81.2425 91.8335 81.8305 94.1342C83.6422 101.224 86.1072 108.73 88.8214 115.659C90.9285 121.037 96.1376 121.033 98.2549 115.659C101.003 108.682 103.092 101.145 105.448 93.9749C106.012 91.7611 107.682 90.0104 109.836 89.2475C115.655 87.1859 121.266 84.8592 125.839 82.845C130.109 80.9641 130.197 74.8576 125.98 72.8598C121.477 70.7264 115.875 68.2559 109.808 66.0512C107.672 65.2752 106.029 63.6376 105.27 61.3129C102.712 53.4798 101.092 46.8388 98.3748 39.9422C96.2574 34.5675 90.699 34.7329 88.5816 40.1076C85.8746 46.9787 83.9848 53.8181 81.807 61.2536Z" fill="url(#paint39_radial_48402_434)"/>
<path d="M81.807 61.2536C81.2293 63.4968 79.268 65.1702 76.9496 66.3294C70.3773 68.6034 65.186 70.7909 60.8904 72.9144C57.0876 74.7942 57.1243 80.735 60.9394 82.5897C65.3971 84.7568 70.9937 86.8352 77.2095 89.2992C78.8807 89.9617 81.2425 91.8335 81.8305 94.1342C83.6422 101.224 86.1072 108.73 88.8214 115.659C90.9285 121.037 96.1376 121.033 98.2549 115.659C101.003 108.682 103.092 101.145 105.448 93.9749C106.012 91.7611 107.682 90.0104 109.836 89.2475C115.655 87.1859 121.266 84.8592 125.839 82.845C130.109 80.9641 130.197 74.8576 125.98 72.8598C121.477 70.7264 115.875 68.2559 109.808 66.0512C107.672 65.2752 106.029 63.6376 105.27 61.3129C102.712 53.4798 101.092 46.8388 98.3748 39.9422C96.2574 34.5675 90.699 34.7329 88.5816 40.1076C85.8746 46.9787 83.9848 53.8181 81.807 61.2536Z" fill="url(#paint40_radial_48402_434)"/>
<path d="M81.807 61.2536C81.2293 63.4968 79.268 65.1702 76.9496 66.3294C70.3773 68.6034 65.186 70.7909 60.8904 72.9144C57.0876 74.7942 57.1243 80.735 60.9394 82.5897C65.3971 84.7568 70.9937 86.8352 77.2095 89.2992C78.8807 89.9617 81.2425 91.8335 81.8305 94.1342C83.6422 101.224 86.1072 108.73 88.8214 115.659C90.9285 121.037 96.1376 121.033 98.2549 115.659C101.003 108.682 103.092 101.145 105.448 93.9749C106.012 91.7611 107.682 90.0104 109.836 89.2475C115.655 87.1859 121.266 84.8592 125.839 82.845C130.109 80.9641 130.197 74.8576 125.98 72.8598C121.477 70.7264 115.875 68.2559 109.808 66.0512C107.672 65.2752 106.029 63.6376 105.27 61.3129C102.712 53.4798 101.092 46.8388 98.3748 39.9422C96.2574 34.5675 90.699 34.7329 88.5816 40.1076C85.8746 46.9787 83.9848 53.8181 81.807 61.2536Z" fill="url(#paint41_radial_48402_434)"/>
<path d="M81.807 61.2536C81.2293 63.4968 79.268 65.1702 76.9496 66.3294C70.3773 68.6034 65.186 70.7909 60.8904 72.9144C57.0876 74.7942 57.1243 80.735 60.9394 82.5897C65.3971 84.7568 70.9937 86.8352 77.2095 89.2992C78.8807 89.9617 81.2425 91.8335 81.8305 94.1342C83.6422 101.224 86.1072 108.73 88.8214 115.659C90.9285 121.037 96.1376 121.033 98.2549 115.659C101.003 108.682 103.092 101.145 105.448 93.9749C106.012 91.7611 107.682 90.0104 109.836 89.2475C115.655 87.1859 121.266 84.8592 125.839 82.845C130.109 80.9641 130.197 74.8576 125.98 72.8598C121.477 70.7264 115.875 68.2559 109.808 66.0512C107.672 65.2752 106.029 63.6376 105.27 61.3129C102.712 53.4798 101.092 46.8388 98.3748 39.9422C96.2574 34.5675 90.699 34.7329 88.5816 40.1076C85.8746 46.9787 83.9848 53.8181 81.807 61.2536Z" fill="url(#paint42_radial_48402_434)"/>
<path d="M81.807 61.2536C81.2293 63.4968 79.268 65.1702 76.9496 66.3294C70.3773 68.6034 65.186 70.7909 60.8904 72.9144C57.0876 74.7942 57.1243 80.735 60.9394 82.5897C65.3971 84.7568 70.9937 86.8352 77.2095 89.2992C78.8807 89.9617 81.2425 91.8335 81.8305 94.1342C83.6422 101.224 86.1072 108.73 88.8214 115.659C90.9285 121.037 96.1376 121.033 98.2549 115.659C101.003 108.682 103.092 101.145 105.448 93.9749C106.012 91.7611 107.682 90.0104 109.836 89.2475C115.655 87.1859 121.266 84.8592 125.839 82.845C130.109 80.9641 130.197 74.8576 125.98 72.8598C121.477 70.7264 115.875 68.2559 109.808 66.0512C107.672 65.2752 106.029 63.6376 105.27 61.3129C102.712 53.4798 101.092 46.8388 98.3748 39.9422C96.2574 34.5675 90.699 34.7329 88.5816 40.1076C85.8746 46.9787 83.9848 53.8181 81.807 61.2536Z" fill="url(#paint43_radial_48402_434)"/>
<path d="M55.0354 211.317C54.2299 214.445 51.4949 216.779 48.262 218.395C39.0972 221.566 31.8582 224.617 25.8682 227.578C20.5654 230.199 20.6166 238.483 25.9366 241.07C32.1525 244.091 39.9568 246.99 48.6244 250.426C50.9549 251.349 54.2483 253.96 55.0681 257.168C57.5946 267.054 61.0318 277.521 64.8167 287.183C67.7549 294.683 75.0187 294.677 77.9712 287.183C81.8039 277.454 84.7157 266.945 88.0021 256.946C88.7886 253.859 91.117 251.417 94.1199 250.354C102.236 247.479 110.059 244.234 116.435 241.426C122.39 238.803 122.513 230.288 116.633 227.502C110.353 224.527 102.542 221.082 94.081 218.007C91.1029 216.925 88.8119 214.642 87.7535 211.4C84.1871 200.477 81.9272 191.217 78.1384 181.6C75.1858 174.105 67.4349 174.336 64.4823 181.83C60.7075 191.412 58.0722 200.949 55.0354 211.317Z" fill="url(#paint44_radial_48402_434)"/>
<path d="M55.0354 211.317C54.2299 214.445 51.4949 216.779 48.262 218.395C39.0972 221.566 31.8582 224.617 25.8682 227.578C20.5654 230.199 20.6166 238.483 25.9366 241.07C32.1525 244.091 39.9568 246.99 48.6244 250.426C50.9549 251.349 54.2483 253.96 55.0681 257.168C57.5946 267.054 61.0318 277.521 64.8167 287.183C67.7549 294.683 75.0187 294.677 77.9712 287.183C81.8039 277.454 84.7157 266.945 88.0021 256.946C88.7886 253.859 91.117 251.417 94.1199 250.354C102.236 247.479 110.059 244.234 116.435 241.426C122.39 238.803 122.513 230.288 116.633 227.502C110.353 224.527 102.542 221.082 94.081 218.007C91.1029 216.925 88.8119 214.642 87.7535 211.4C84.1871 200.477 81.9272 191.217 78.1384 181.6C75.1858 174.105 67.4349 174.336 64.4823 181.83C60.7075 191.412 58.0722 200.949 55.0354 211.317Z" fill="url(#paint45_radial_48402_434)"/>
<path d="M55.0354 211.317C54.2299 214.445 51.4949 216.779 48.262 218.395C39.0972 221.566 31.8582 224.617 25.8682 227.578C20.5654 230.199 20.6166 238.483 25.9366 241.07C32.1525 244.091 39.9568 246.99 48.6244 250.426C50.9549 251.349 54.2483 253.96 55.0681 257.168C57.5946 267.054 61.0318 277.521 64.8167 287.183C67.7549 294.683 75.0187 294.677 77.9712 287.183C81.8039 277.454 84.7157 266.945 88.0021 256.946C88.7886 253.859 91.117 251.417 94.1199 250.354C102.236 247.479 110.059 244.234 116.435 241.426C122.39 238.803 122.513 230.288 116.633 227.502C110.353 224.527 102.542 221.082 94.081 218.007C91.1029 216.925 88.8119 214.642 87.7535 211.4C84.1871 200.477 81.9272 191.217 78.1384 181.6C75.1858 174.105 67.4349 174.336 64.4823 181.83C60.7075 191.412 58.0722 200.949 55.0354 211.317Z" fill="url(#paint46_radial_48402_434)"/>
<path d="M55.0354 211.317C54.2299 214.445 51.4949 216.779 48.262 218.395C39.0972 221.566 31.8582 224.617 25.8682 227.578C20.5654 230.199 20.6166 238.483 25.9366 241.07C32.1525 244.091 39.9568 246.99 48.6244 250.426C50.9549 251.349 54.2483 253.96 55.0681 257.168C57.5946 267.054 61.0318 277.521 64.8167 287.183C67.7549 294.683 75.0187 294.677 77.9712 287.183C81.8039 277.454 84.7157 266.945 88.0021 256.946C88.7886 253.859 91.117 251.417 94.1199 250.354C102.236 247.479 110.059 244.234 116.435 241.426C122.39 238.803 122.513 230.288 116.633 227.502C110.353 224.527 102.542 221.082 94.081 218.007C91.1029 216.925 88.8119 214.642 87.7535 211.4C84.1871 200.477 81.9272 191.217 78.1384 181.6C75.1858 174.105 67.4349 174.336 64.4823 181.83C60.7075 191.412 58.0722 200.949 55.0354 211.317Z" fill="url(#paint47_radial_48402_434)"/>
<path d="M55.0354 211.317C54.2299 214.445 51.4949 216.779 48.262 218.395C39.0972 221.566 31.8582 224.617 25.8682 227.578C20.5654 230.199 20.6166 238.483 25.9366 241.07C32.1525 244.091 39.9568 246.99 48.6244 250.426C50.9549 251.349 54.2483 253.96 55.0681 257.168C57.5946 267.054 61.0318 277.521 64.8167 287.183C67.7549 294.683 75.0187 294.677 77.9712 287.183C81.8039 277.454 84.7157 266.945 88.0021 256.946C88.7886 253.859 91.117 251.417 94.1199 250.354C102.236 247.479 110.059 244.234 116.435 241.426C122.39 238.803 122.513 230.288 116.633 227.502C110.353 224.527 102.542 221.082 94.081 218.007C91.1029 216.925 88.8119 214.642 87.7535 211.4C84.1871 200.477 81.9272 191.217 78.1384 181.6C75.1858 174.105 67.4349 174.336 64.4823 181.83C60.7075 191.412 58.0722 200.949 55.0354 211.317Z" fill="url(#paint48_radial_48402_434)"/>
<path d="M55.0354 211.317C54.2299 214.445 51.4949 216.779 48.262 218.395C39.0972 221.566 31.8582 224.617 25.8682 227.578C20.5654 230.199 20.6166 238.483 25.9366 241.07C32.1525 244.091 39.9568 246.99 48.6244 250.426C50.9549 251.349 54.2483 253.96 55.0681 257.168C57.5946 267.054 61.0318 277.521 64.8167 287.183C67.7549 294.683 75.0187 294.677 77.9712 287.183C81.8039 277.454 84.7157 266.945 88.0021 256.946C88.7886 253.859 91.117 251.417 94.1199 250.354C102.236 247.479 110.059 244.234 116.435 241.426C122.39 238.803 122.513 230.288 116.633 227.502C110.353 224.527 102.542 221.082 94.081 218.007C91.1029 216.925 88.8119 214.642 87.7535 211.4C84.1871 200.477 81.9272 191.217 78.1384 181.6C75.1858 174.105 67.4349 174.336 64.4823 181.83C60.7075 191.412 58.0722 200.949 55.0354 211.317Z" fill="url(#paint49_radial_48402_434)"/>
<path d="M55.0354 211.317C54.2299 214.445 51.4949 216.779 48.262 218.395C39.0972 221.566 31.8582 224.617 25.8682 227.578C20.5654 230.199 20.6166 238.483 25.9366 241.07C32.1525 244.091 39.9568 246.99 48.6244 250.426C50.9549 251.349 54.2483 253.96 55.0681 257.168C57.5946 267.054 61.0318 277.521 64.8167 287.183C67.7549 294.683 75.0187 294.677 77.9712 287.183C81.8039 277.454 84.7157 266.945 88.0021 256.946C88.7886 253.859 91.117 251.417 94.1199 250.354C102.236 247.479 110.059 244.234 116.435 241.426C122.39 238.803 122.513 230.288 116.633 227.502C110.353 224.527 102.542 221.082 94.081 218.007C91.1029 216.925 88.8119 214.642 87.7535 211.4C84.1871 200.477 81.9272 191.217 78.1384 181.6C75.1858 174.105 67.4349 174.336 64.4823 181.83C60.7075 191.412 58.0722 200.949 55.0354 211.317Z" fill="url(#paint50_radial_48402_434)"/>
<path d="M55.0354 211.317C54.2299 214.445 51.4949 216.779 48.262 218.395C39.0972 221.566 31.8582 224.617 25.8682 227.578C20.5654 230.199 20.6166 238.483 25.9366 241.07C32.1525 244.091 39.9568 246.99 48.6244 250.426C50.9549 251.349 54.2483 253.96 55.0681 257.168C57.5946 267.054 61.0318 277.521 64.8167 287.183C67.7549 294.683 75.0187 294.677 77.9712 287.183C81.8039 277.454 84.7157 266.945 88.0021 256.946C88.7886 253.859 91.117 251.417 94.1199 250.354C102.236 247.479 110.059 244.234 116.435 241.426C122.39 238.803 122.513 230.288 116.633 227.502C110.353 224.527 102.542 221.082 94.081 218.007C91.1029 216.925 88.8119 214.642 87.7535 211.4C84.1871 200.477 81.9272 191.217 78.1384 181.6C75.1858 174.105 67.4349 174.336 64.4823 181.83C60.7075 191.412 58.0722 200.949 55.0354 211.317Z" fill="url(#paint51_radial_48402_434)"/>
<path d="M55.0354 211.317C54.2299 214.445 51.4949 216.779 48.262 218.395C39.0972 221.566 31.8582 224.617 25.8682 227.578C20.5654 230.199 20.6166 238.483 25.9366 241.07C32.1525 244.091 39.9568 246.99 48.6244 250.426C50.9549 251.349 54.2483 253.96 55.0681 257.168C57.5946 267.054 61.0318 277.521 64.8167 287.183C67.7549 294.683 75.0187 294.677 77.9712 287.183C81.8039 277.454 84.7157 266.945 88.0021 256.946C88.7886 253.859 91.117 251.417 94.1199 250.354C102.236 247.479 110.059 244.234 116.435 241.426C122.39 238.803 122.513 230.288 116.633 227.502C110.353 224.527 102.542 221.082 94.081 218.007C91.1029 216.925 88.8119 214.642 87.7535 211.4C84.1871 200.477 81.9272 191.217 78.1384 181.6C75.1858 174.105 67.4349 174.336 64.4823 181.83C60.7075 191.412 58.0722 200.949 55.0354 211.317Z" fill="url(#paint52_radial_48402_434)"/>
<path d="M55.0354 211.317C54.2299 214.445 51.4949 216.779 48.262 218.395C39.0972 221.566 31.8582 224.617 25.8682 227.578C20.5654 230.199 20.6166 238.483 25.9366 241.07C32.1525 244.091 39.9568 246.99 48.6244 250.426C50.9549 251.349 54.2483 253.96 55.0681 257.168C57.5946 267.054 61.0318 277.521 64.8167 287.183C67.7549 294.683 75.0187 294.677 77.9712 287.183C81.8039 277.454 84.7157 266.945 88.0021 256.946C88.7886 253.859 91.117 251.417 94.1199 250.354C102.236 247.479 110.059 244.234 116.435 241.426C122.39 238.803 122.513 230.288 116.633 227.502C110.353 224.527 102.542 221.082 94.081 218.007C91.1029 216.925 88.8119 214.642 87.7535 211.4C84.1871 200.477 81.9272 191.217 78.1384 181.6C75.1858 174.105 67.4349 174.336 64.4823 181.83C60.7075 191.412 58.0722 200.949 55.0354 211.317Z" fill="url(#paint53_radial_48402_434)"/>
<path d="M55.0354 211.317C54.2299 214.445 51.4949 216.779 48.262 218.395C39.0972 221.566 31.8582 224.617 25.8682 227.578C20.5654 230.199 20.6166 238.483 25.9366 241.07C32.1525 244.091 39.9568 246.99 48.6244 250.426C50.9549 251.349 54.2483 253.96 55.0681 257.168C57.5946 267.054 61.0318 277.521 64.8167 287.183C67.7549 294.683 75.0187 294.677 77.9712 287.183C81.8039 277.454 84.7157 266.945 88.0021 256.946C88.7886 253.859 91.117 251.417 94.1199 250.354C102.236 247.479 110.059 244.234 116.435 241.426C122.39 238.803 122.513 230.288 116.633 227.502C110.353 224.527 102.542 221.082 94.081 218.007C91.1029 216.925 88.8119 214.642 87.7535 211.4C84.1871 200.477 81.9272 191.217 78.1384 181.6C75.1858 174.105 67.4349 174.336 64.4823 181.83C60.7075 191.412 58.0722 200.949 55.0354 211.317Z" fill="url(#paint54_radial_48402_434)"/>
<path d="M55.0354 211.317C54.2299 214.445 51.4949 216.779 48.262 218.395C39.0972 221.566 31.8582 224.617 25.8682 227.578C20.5654 230.199 20.6166 238.483 25.9366 241.07C32.1525 244.091 39.9568 246.99 48.6244 250.426C50.9549 251.349 54.2483 253.96 55.0681 257.168C57.5946 267.054 61.0318 277.521 64.8167 287.183C67.7549 294.683 75.0187 294.677 77.9712 287.183C81.8039 277.454 84.7157 266.945 88.0021 256.946C88.7886 253.859 91.117 251.417 94.1199 250.354C102.236 247.479 110.059 244.234 116.435 241.426C122.39 238.803 122.513 230.288 116.633 227.502C110.353 224.527 102.542 221.082 94.081 218.007C91.1029 216.925 88.8119 214.642 87.7535 211.4C84.1871 200.477 81.9272 191.217 78.1384 181.6C75.1858 174.105 67.4349 174.336 64.4823 181.83C60.7075 191.412 58.0722 200.949 55.0354 211.317Z" fill="url(#paint55_radial_48402_434)"/>
<path d="M55.0354 211.317C54.2299 214.445 51.4949 216.779 48.262 218.395C39.0972 221.566 31.8582 224.617 25.8682 227.578C20.5654 230.199 20.6166 238.483 25.9366 241.07C32.1525 244.091 39.9568 246.99 48.6244 250.426C50.9549 251.349 54.2483 253.96 55.0681 257.168C57.5946 267.054 61.0318 277.521 64.8167 287.183C67.7549 294.683 75.0187 294.677 77.9712 287.183C81.8039 277.454 84.7157 266.945 88.0021 256.946C88.7886 253.859 91.117 251.417 94.1199 250.354C102.236 247.479 110.059 244.234 116.435 241.426C122.39 238.803 122.513 230.288 116.633 227.502C110.353 224.527 102.542 221.082 94.081 218.007C91.1029 216.925 88.8119 214.642 87.7535 211.4C84.1871 200.477 81.9272 191.217 78.1384 181.6C75.1858 174.105 67.4349 174.336 64.4823 181.83C60.7075 191.412 58.0722 200.949 55.0354 211.317Z" fill="url(#paint56_radial_48402_434)"/>
<path d="M55.0354 211.317C54.2299 214.445 51.4949 216.779 48.262 218.395C39.0972 221.566 31.8582 224.617 25.8682 227.578C20.5654 230.199 20.6166 238.483 25.9366 241.07C32.1525 244.091 39.9568 246.99 48.6244 250.426C50.9549 251.349 54.2483 253.96 55.0681 257.168C57.5946 267.054 61.0318 277.521 64.8167 287.183C67.7549 294.683 75.0187 294.677 77.9712 287.183C81.8039 277.454 84.7157 266.945 88.0021 256.946C88.7886 253.859 91.117 251.417 94.1199 250.354C102.236 247.479 110.059 244.234 116.435 241.426C122.39 238.803 122.513 230.288 116.633 227.502C110.353 224.527 102.542 221.082 94.081 218.007C91.1029 216.925 88.8119 214.642 87.7535 211.4C84.1871 200.477 81.9272 191.217 78.1384 181.6C75.1858 174.105 67.4349 174.336 64.4823 181.83C60.7075 191.412 58.0722 200.949 55.0354 211.317Z" fill="url(#paint57_radial_48402_434)"/>
<path d="M55.0354 211.317C54.2299 214.445 51.4949 216.779 48.262 218.395C39.0972 221.566 31.8582 224.617 25.8682 227.578C20.5654 230.199 20.6166 238.483 25.9366 241.07C32.1525 244.091 39.9568 246.99 48.6244 250.426C50.9549 251.349 54.2483 253.96 55.0681 257.168C57.5946 267.054 61.0318 277.521 64.8167 287.183C67.7549 294.683 75.0187 294.677 77.9712 287.183C81.8039 277.454 84.7157 266.945 88.0021 256.946C88.7886 253.859 91.117 251.417 94.1199 250.354C102.236 247.479 110.059 244.234 116.435 241.426C122.39 238.803 122.513 230.288 116.633 227.502C110.353 224.527 102.542 221.082 94.081 218.007C91.1029 216.925 88.8119 214.642 87.7535 211.4C84.1871 200.477 81.9272 191.217 78.1384 181.6C75.1858 174.105 67.4349 174.336 64.4823 181.83C60.7075 191.412 58.0722 200.949 55.0354 211.317Z" fill="url(#paint58_radial_48402_434)"/>
<path d="M55.0354 211.317C54.2299 214.445 51.4949 216.779 48.262 218.395C39.0972 221.566 31.8582 224.617 25.8682 227.578C20.5654 230.199 20.6166 238.483 25.9366 241.07C32.1525 244.091 39.9568 246.99 48.6244 250.426C50.9549 251.349 54.2483 253.96 55.0681 257.168C57.5946 267.054 61.0318 277.521 64.8167 287.183C67.7549 294.683 75.0187 294.677 77.9712 287.183C81.8039 277.454 84.7157 266.945 88.0021 256.946C88.7886 253.859 91.117 251.417 94.1199 250.354C102.236 247.479 110.059 244.234 116.435 241.426C122.39 238.803 122.513 230.288 116.633 227.502C110.353 224.527 102.542 221.082 94.081 218.007C91.1029 216.925 88.8119 214.642 87.7535 211.4C84.1871 200.477 81.9272 191.217 78.1384 181.6C75.1858 174.105 67.4349 174.336 64.4823 181.83C60.7075 191.412 58.0722 200.949 55.0354 211.317Z" fill="url(#paint59_radial_48402_434)"/>
<path d="M55.0354 211.317C54.2299 214.445 51.4949 216.779 48.262 218.395C39.0972 221.566 31.8582 224.617 25.8682 227.578C20.5654 230.199 20.6166 238.483 25.9366 241.07C32.1525 244.091 39.9568 246.99 48.6244 250.426C50.9549 251.349 54.2483 253.96 55.0681 257.168C57.5946 267.054 61.0318 277.521 64.8167 287.183C67.7549 294.683 75.0187 294.677 77.9712 287.183C81.8039 277.454 84.7157 266.945 88.0021 256.946C88.7886 253.859 91.117 251.417 94.1199 250.354C102.236 247.479 110.059 244.234 116.435 241.426C122.39 238.803 122.513 230.288 116.633 227.502C110.353 224.527 102.542 221.082 94.081 218.007C91.1029 216.925 88.8119 214.642 87.7535 211.4C84.1871 200.477 81.9272 191.217 78.1384 181.6C75.1858 174.105 67.4349 174.336 64.4823 181.83C60.7075 191.412 58.0722 200.949 55.0354 211.317Z" fill="url(#paint60_radial_48402_434)"/>
<path d="M55.0354 211.317C54.2299 214.445 51.4949 216.779 48.262 218.395C39.0972 221.566 31.8582 224.617 25.8682 227.578C20.5654 230.199 20.6166 238.483 25.9366 241.07C32.1525 244.091 39.9568 246.99 48.6244 250.426C50.9549 251.349 54.2483 253.96 55.0681 257.168C57.5946 267.054 61.0318 277.521 64.8167 287.183C67.7549 294.683 75.0187 294.677 77.9712 287.183C81.8039 277.454 84.7157 266.945 88.0021 256.946C88.7886 253.859 91.117 251.417 94.1199 250.354C102.236 247.479 110.059 244.234 116.435 241.426C122.39 238.803 122.513 230.288 116.633 227.502C110.353 224.527 102.542 221.082 94.081 218.007C91.1029 216.925 88.8119 214.642 87.7535 211.4C84.1871 200.477 81.9272 191.217 78.1384 181.6C75.1858 174.105 67.4349 174.336 64.4823 181.83C60.7075 191.412 58.0722 200.949 55.0354 211.317Z" fill="url(#paint61_radial_48402_434)"/>
<path d="M55.0354 211.317C54.2299 214.445 51.4949 216.779 48.262 218.395C39.0972 221.566 31.8582 224.617 25.8682 227.578C20.5654 230.199 20.6166 238.483 25.9366 241.07C32.1525 244.091 39.9568 246.99 48.6244 250.426C50.9549 251.349 54.2483 253.96 55.0681 257.168C57.5946 267.054 61.0318 277.521 64.8167 287.183C67.7549 294.683 75.0187 294.677 77.9712 287.183C81.8039 277.454 84.7157 266.945 88.0021 256.946C88.7886 253.859 91.117 251.417 94.1199 250.354C102.236 247.479 110.059 244.234 116.435 241.426C122.39 238.803 122.513 230.288 116.633 227.502C110.353 224.527 102.542 221.082 94.081 218.007C91.1029 216.925 88.8119 214.642 87.7535 211.4C84.1871 200.477 81.9272 191.217 78.1384 181.6C75.1858 174.105 67.4349 174.336 64.4823 181.83C60.7075 191.412 58.0722 200.949 55.0354 211.317Z" fill="url(#paint62_radial_48402_434)"/>
<path d="M55.0354 211.317C54.2299 214.445 51.4949 216.779 48.262 218.395C39.0972 221.566 31.8582 224.617 25.8682 227.578C20.5654 230.199 20.6166 238.483 25.9366 241.07C32.1525 244.091 39.9568 246.99 48.6244 250.426C50.9549 251.349 54.2483 253.96 55.0681 257.168C57.5946 267.054 61.0318 277.521 64.8167 287.183C67.7549 294.683 75.0187 294.677 77.9712 287.183C81.8039 277.454 84.7157 266.945 88.0021 256.946C88.7886 253.859 91.117 251.417 94.1199 250.354C102.236 247.479 110.059 244.234 116.435 241.426C122.39 238.803 122.513 230.288 116.633 227.502C110.353 224.527 102.542 221.082 94.081 218.007C91.1029 216.925 88.8119 214.642 87.7535 211.4C84.1871 200.477 81.9272 191.217 78.1384 181.6C75.1858 174.105 67.4349 174.336 64.4823 181.83C60.7075 191.412 58.0722 200.949 55.0354 211.317Z" fill="url(#paint63_radial_48402_434)"/>
<path d="M55.0354 211.317C54.2299 214.445 51.4949 216.779 48.262 218.395C39.0972 221.566 31.8582 224.617 25.8682 227.578C20.5654 230.199 20.6166 238.483 25.9366 241.07C32.1525 244.091 39.9568 246.99 48.6244 250.426C50.9549 251.349 54.2483 253.96 55.0681 257.168C57.5946 267.054 61.0318 277.521 64.8167 287.183C67.7549 294.683 75.0187 294.677 77.9712 287.183C81.8039 277.454 84.7157 266.945 88.0021 256.946C88.7886 253.859 91.117 251.417 94.1199 250.354C102.236 247.479 110.059 244.234 116.435 241.426C122.39 238.803 122.513 230.288 116.633 227.502C110.353 224.527 102.542 221.082 94.081 218.007C91.1029 216.925 88.8119 214.642 87.7535 211.4C84.1871 200.477 81.9272 191.217 78.1384 181.6C75.1858 174.105 67.4349 174.336 64.4823 181.83C60.7075 191.412 58.0722 200.949 55.0354 211.317Z" fill="url(#paint64_radial_48402_434)"/>
<path d="M55.0354 211.317C54.2299 214.445 51.4949 216.779 48.262 218.395C39.0972 221.566 31.8582 224.617 25.8682 227.578C20.5654 230.199 20.6166 238.483 25.9366 241.07C32.1525 244.091 39.9568 246.99 48.6244 250.426C50.9549 251.349 54.2483 253.96 55.0681 257.168C57.5946 267.054 61.0318 277.521 64.8167 287.183C67.7549 294.683 75.0187 294.677 77.9712 287.183C81.8039 277.454 84.7157 266.945 88.0021 256.946C88.7886 253.859 91.117 251.417 94.1199 250.354C102.236 247.479 110.059 244.234 116.435 241.426C122.39 238.803 122.513 230.288 116.633 227.502C110.353 224.527 102.542 221.082 94.081 218.007C91.1029 216.925 88.8119 214.642 87.7535 211.4C84.1871 200.477 81.9272 191.217 78.1384 181.6C75.1858 174.105 67.4349 174.336 64.4823 181.83C60.7075 191.412 58.0722 200.949 55.0354 211.317Z" fill="url(#paint65_radial_48402_434)"/>
<path d="M55.0354 211.317C54.2299 214.445 51.4949 216.779 48.262 218.395C39.0972 221.566 31.8582 224.617 25.8682 227.578C20.5654 230.199 20.6166 238.483 25.9366 241.07C32.1525 244.091 39.9568 246.99 48.6244 250.426C50.9549 251.349 54.2483 253.96 55.0681 257.168C57.5946 267.054 61.0318 277.521 64.8167 287.183C67.7549 294.683 75.0187 294.677 77.9712 287.183C81.8039 277.454 84.7157 266.945 88.0021 256.946C88.7886 253.859 91.117 251.417 94.1199 250.354C102.236 247.479 110.059 244.234 116.435 241.426C122.39 238.803 122.513 230.288 116.633 227.502C110.353 224.527 102.542 221.082 94.081 218.007C91.1029 216.925 88.8119 214.642 87.7535 211.4C84.1871 200.477 81.9272 191.217 78.1384 181.6C75.1858 174.105 67.4349 174.336 64.4823 181.83C60.7075 191.412 58.0722 200.949 55.0354 211.317Z" fill="url(#paint66_radial_48402_434)"/>
<path d="M55.0354 211.317C54.2299 214.445 51.4949 216.779 48.262 218.395C39.0972 221.566 31.8582 224.617 25.8682 227.578C20.5654 230.199 20.6166 238.483 25.9366 241.07C32.1525 244.091 39.9568 246.99 48.6244 250.426C50.9549 251.349 54.2483 253.96 55.0681 257.168C57.5946 267.054 61.0318 277.521 64.8167 287.183C67.7549 294.683 75.0187 294.677 77.9712 287.183C81.8039 277.454 84.7157 266.945 88.0021 256.946C88.7886 253.859 91.117 251.417 94.1199 250.354C102.236 247.479 110.059 244.234 116.435 241.426C122.39 238.803 122.513 230.288 116.633 227.502C110.353 224.527 102.542 221.082 94.081 218.007C91.1029 216.925 88.8119 214.642 87.7535 211.4C84.1871 200.477 81.9272 191.217 78.1384 181.6C75.1858 174.105 67.4349 174.336 64.4823 181.83C60.7075 191.412 58.0722 200.949 55.0354 211.317Z" fill="url(#paint67_radial_48402_434)" fill-opacity="0.5"/>
<path d="M55.0354 211.317C54.2299 214.445 51.4949 216.779 48.262 218.395C39.0972 221.566 31.8582 224.617 25.8682 227.578C20.5654 230.199 20.6166 238.483 25.9366 241.07C32.1525 244.091 39.9568 246.99 48.6244 250.426C50.9549 251.349 54.2483 253.96 55.0681 257.168C57.5946 267.054 61.0318 277.521 64.8167 287.183C67.7549 294.683 75.0187 294.677 77.9712 287.183C81.8039 277.454 84.7157 266.945 88.0021 256.946C88.7886 253.859 91.117 251.417 94.1199 250.354C102.236 247.479 110.059 244.234 116.435 241.426C122.39 238.803 122.513 230.288 116.633 227.502C110.353 224.527 102.542 221.082 94.081 218.007C91.1029 216.925 88.8119 214.642 87.7535 211.4C84.1871 200.477 81.9272 191.217 78.1384 181.6C75.1858 174.105 67.4349 174.336 64.4823 181.83C60.7075 191.412 58.0722 200.949 55.0354 211.317Z" fill="url(#paint68_radial_48402_434)" fill-opacity="0.5"/>
<path d="M55.0354 211.317C54.2299 214.445 51.4949 216.779 48.262 218.395C39.0972 221.566 31.8582 224.617 25.8682 227.578C20.5654 230.199 20.6166 238.483 25.9366 241.07C32.1525 244.091 39.9568 246.99 48.6244 250.426C50.9549 251.349 54.2483 253.96 55.0681 257.168C57.5946 267.054 61.0318 277.521 64.8167 287.183C67.7549 294.683 75.0187 294.677 77.9712 287.183C81.8039 277.454 84.7157 266.945 88.0021 256.946C88.7886 253.859 91.117 251.417 94.1199 250.354C102.236 247.479 110.059 244.234 116.435 241.426C122.39 238.803 122.513 230.288 116.633 227.502C110.353 224.527 102.542 221.082 94.081 218.007C91.1029 216.925 88.8119 214.642 87.7535 211.4C84.1871 200.477 81.9272 191.217 78.1384 181.6C75.1858 174.105 67.4349 174.336 64.4823 181.83C60.7075 191.412 58.0722 200.949 55.0354 211.317Z" fill="url(#paint69_radial_48402_434)" fill-opacity="0.5"/>
<path d="M55.0354 211.317C54.2299 214.445 51.4949 216.779 48.262 218.395C39.0972 221.566 31.8582 224.617 25.8682 227.578C20.5654 230.199 20.6166 238.483 25.9366 241.07C32.1525 244.091 39.9568 246.99 48.6244 250.426C50.9549 251.349 54.2483 253.96 55.0681 257.168C57.5946 267.054 61.0318 277.521 64.8167 287.183C67.7549 294.683 75.0187 294.677 77.9712 287.183C81.8039 277.454 84.7157 266.945 88.0021 256.946C88.7886 253.859 91.117 251.417 94.1199 250.354C102.236 247.479 110.059 244.234 116.435 241.426C122.39 238.803 122.513 230.288 116.633 227.502C110.353 224.527 102.542 221.082 94.081 218.007C91.1029 216.925 88.8119 214.642 87.7535 211.4C84.1871 200.477 81.9272 191.217 78.1384 181.6C75.1858 174.105 67.4349 174.336 64.4823 181.83C60.7075 191.412 58.0722 200.949 55.0354 211.317Z" fill="url(#paint70_radial_48402_434)" fill-opacity="0.5"/>
<path d="M55.0354 211.317C54.2299 214.445 51.4949 216.779 48.262 218.395C39.0972 221.566 31.8582 224.617 25.8682 227.578C20.5654 230.199 20.6166 238.483 25.9366 241.07C32.1525 244.091 39.9568 246.99 48.6244 250.426C50.9549 251.349 54.2483 253.96 55.0681 257.168C57.5946 267.054 61.0318 277.521 64.8167 287.183C67.7549 294.683 75.0187 294.677 77.9712 287.183C81.8039 277.454 84.7157 266.945 88.0021 256.946C88.7886 253.859 91.117 251.417 94.1199 250.354C102.236 247.479 110.059 244.234 116.435 241.426C122.39 238.803 122.513 230.288 116.633 227.502C110.353 224.527 102.542 221.082 94.081 218.007C91.1029 216.925 88.8119 214.642 87.7535 211.4C84.1871 200.477 81.9272 191.217 78.1384 181.6C75.1858 174.105 67.4349 174.336 64.4823 181.83C60.7075 191.412 58.0722 200.949 55.0354 211.317Z" fill="url(#paint71_radial_48402_434)" fill-opacity="0.5"/>
<path d="M55.0354 211.317C54.2299 214.445 51.4949 216.779 48.262 218.395C39.0972 221.566 31.8582 224.617 25.8682 227.578C20.5654 230.199 20.6166 238.483 25.9366 241.07C32.1525 244.091 39.9568 246.99 48.6244 250.426C50.9549 251.349 54.2483 253.96 55.0681 257.168C57.5946 267.054 61.0318 277.521 64.8167 287.183C67.7549 294.683 75.0187 294.677 77.9712 287.183C81.8039 277.454 84.7157 266.945 88.0021 256.946C88.7886 253.859 91.117 251.417 94.1199 250.354C102.236 247.479 110.059 244.234 116.435 241.426C122.39 238.803 122.513 230.288 116.633 227.502C110.353 224.527 102.542 221.082 94.081 218.007C91.1029 216.925 88.8119 214.642 87.7535 211.4C84.1871 200.477 81.9272 191.217 78.1384 181.6C75.1858 174.105 67.4349 174.336 64.4823 181.83C60.7075 191.412 58.0722 200.949 55.0354 211.317Z" fill="url(#paint72_radial_48402_434)" fill-opacity="0.5"/>
<defs>
<linearGradient id="paint0_linear_48402_434" x1="275.168" y1="118.701" x2="158.521" y2="241.497" gradientUnits="userSpaceOnUse">
<stop stop-color="#FFCF5A"/>
<stop offset="1" stop-color="#FEA254"/>
</linearGradient>
<linearGradient id="paint1_linear_48402_434" x1="155.375" y1="308.464" x2="218.962" y2="174.336" gradientUnits="userSpaceOnUse">
<stop stop-color="#FF886D"/>
<stop offset="1" stop-color="#FF886D" stop-opacity="0"/>
</linearGradient>
<radialGradient id="paint2_radial_48402_434" cx="0" cy="0" r="1" gradientUnits="userSpaceOnUse" gradientTransform="translate(279.595 203.489) rotate(-110.523) scale(26.2972 74.0141)">
<stop stop-color="#EF7B54"/>
<stop offset="0.746285" stop-color="#EF7B54" stop-opacity="0.131386"/>
<stop offset="1" stop-color="#EF7B54" stop-opacity="0"/>
</radialGradient>
<radialGradient id="paint3_radial_48402_434" cx="0" cy="0" r="1" gradientUnits="userSpaceOnUse" gradientTransform="translate(180.889 270.296) rotate(-19.6611) scale(17.5742 91.0441)">
<stop stop-color="#EF7B54"/>
<stop offset="0.501931" stop-color="#EF7B54" stop-opacity="0.462921"/>
<stop offset="0.802968" stop-color="#EF7B54" stop-opacity="0.131386"/>
<stop offset="1" stop-color="#EF7B54" stop-opacity="0"/>
</radialGradient>
<radialGradient id="paint4_radial_48402_434" cx="0" cy="0" r="1" gradientUnits="userSpaceOnUse" gradientTransform="translate(160.234 215.543) rotate(-41.9334) scale(12.1428 22.6339)">
<stop stop-color="#EF7B54"/>
<stop offset="0.501931" stop-color="#EF7B54" stop-opacity="0.462921"/>
<stop offset="0.802968" stop-color="#EF7B54" stop-opacity="0.131386"/>
<stop offset="1" stop-color="#EF7B54" stop-opacity="0"/>
</radialGradient>
<radialGradient id="paint5_radial_48402_434" cx="0" cy="0" r="1" gradientUnits="userSpaceOnUse" gradientTransform="translate(136.316 198.308) rotate(-68.9625) scale(5.9386 29.7174)">
<stop stop-color="#EF7B54"/>
<stop offset="0.501931" stop-color="#EF7B54" stop-opacity="0.462921"/>
<stop offset="1" stop-color="#EF7B54" stop-opacity="0"/>
</radialGradient>
<radialGradient id="paint6_radial_48402_434" cx="0" cy="0" r="1" gradientUnits="userSpaceOnUse" gradientTransform="translate(180.766 260.19) rotate(-15.0685) scale(5.975 43.5968)">
<stop stop-color="#EF7B54"/>
<stop offset="0.501931" stop-color="#EF7B54" stop-opacity="0.462921"/>
<stop offset="1" stop-color="#EF7B54" stop-opacity="0"/>
</radialGradient>
<radialGradient id="paint7_radial_48402_434" cx="0" cy="0" r="1" gradientUnits="userSpaceOnUse" gradientTransform="translate(125.15 198.174) rotate(-61.9908) scale(18.6464 66.5874)">
<stop stop-color="#EF7B54"/>
<stop offset="0.501931" stop-color="#EF7B54" stop-opacity="0.462921"/>
<stop offset="0.802968" stop-color="#EF7B54" stop-opacity="0.131386"/>
<stop offset="1" stop-color="#EF7B54" stop-opacity="0"/>
</radialGradient>
<radialGradient id="paint8_radial_48402_434" cx="0" cy="0" r="1" gradientUnits="userSpaceOnUse" gradientTransform="translate(198.485 299.111) rotate(-75.1414) scale(15.048 103.149)">
<stop stop-color="#EF7B54"/>
<stop offset="0.501931" stop-color="#EF7B54" stop-opacity="0.462921"/>
<stop offset="0.802968" stop-color="#EF7B54" stop-opacity="0.131386"/>
<stop offset="1" stop-color="#EF7B54" stop-opacity="0"/>
</radialGradient>
<radialGradient id="paint9_radial_48402_434" cx="0" cy="0" r="1" gradientUnits="userSpaceOnUse" gradientTransform="translate(123.764 141.408) rotate(68.4265) scale(9.11204 43.2622)">
<stop stop-color="#EF7B54"/>
<stop offset="0.501931" stop-color="#EF7B54" stop-opacity="0.462921"/>
<stop offset="0.802968" stop-color="#EF7B54" stop-opacity="0.131386"/>
<stop offset="1" stop-color="#EF7B54" stop-opacity="0"/>
</radialGradient>
<radialGradient id="paint10_radial_48402_434" cx="0" cy="0" r="1" gradientUnits="userSpaceOnUse" gradientTransform="translate(156.942 122.406) rotate(45.4815) scale(12.6236 16.8041)">
<stop stop-color="#EF7B54"/>
<stop offset="0.501931" stop-color="#EF7B54" stop-opacity="0.462921"/>
<stop offset="0.802968" stop-color="#EF7B54" stop-opacity="0.131386"/>
<stop offset="1" stop-color="#EF7B54" stop-opacity="0"/>
</radialGradient>
<radialGradient id="paint11_radial_48402_434" cx="0" cy="0" r="1" gradientUnits="userSpaceOnUse" gradientTransform="translate(169.933 92.9687) rotate(15.5241) scale(9.42794 42.3532)">
<stop stop-color="#EF7B54"/>
<stop offset="0.501931" stop-color="#EF7B54" stop-opacity="0.462921"/>
<stop offset="0.802968" stop-color="#EF7B54" stop-opacity="0.131386"/>
<stop offset="1" stop-color="#EF7B54" stop-opacity="0"/>
</radialGradient>
<radialGradient id="paint12_radial_48402_434" cx="0" cy="0" r="1" gradientUnits="userSpaceOnUse" gradientTransform="translate(180.884 58.3535) rotate(11.3099) scale(9.18515 41.2625)">
<stop stop-color="#EF7B54"/>
<stop offset="0.501931" stop-color="#EF7B54" stop-opacity="0.462921"/>
<stop offset="0.802968" stop-color="#EF7B54" stop-opacity="0.131386"/>
<stop offset="1" stop-color="#EF7B54" stop-opacity="0"/>
</radialGradient>
<radialGradient id="paint13_radial_48402_434" cx="0" cy="0" r="1" gradientUnits="userSpaceOnUse" gradientTransform="translate(190.337 40.3633) rotate(28.8649) scale(8.53378 38.3364)">
<stop stop-color="#EF7B54"/>
<stop offset="0.451537" stop-color="#EF7B54" stop-opacity="0.462921"/>
<stop offset="0.716342" stop-color="#EF7B54" stop-opacity="0.131386"/>
<stop offset="1" stop-color="#EF7B54" stop-opacity="0"/>
</radialGradient>
<radialGradient id="paint14_radial_48402_434" cx="0" cy="0" r="1" gradientUnits="userSpaceOnUse" gradientTransform="translate(96.4268 156.118) rotate(36.0736) scale(11.2481 50.5301)">
<stop stop-color="#EF7B54"/>
<stop offset="0.451537" stop-color="#EF7B54" stop-opacity="0.462921"/>
<stop offset="0.716342" stop-color="#EF7B54" stop-opacity="0.131386"/>
<stop offset="1" stop-color="#EF7B54" stop-opacity="0"/>
</radialGradient>
<radialGradient id="paint15_radial_48402_434" cx="0" cy="0" r="1" gradientUnits="userSpaceOnUse" gradientTransform="translate(92.6085 163.525) scale(11.0613 49.6906)">
<stop stop-color="#EF7B54"/>
<stop offset="0.451537" stop-color="#EF7B54" stop-opacity="0.462921"/>
<stop offset="0.716342" stop-color="#EF7B54" stop-opacity="0.131386"/>
<stop offset="1" stop-color="#EF7B54" stop-opacity="0"/>
</radialGradient>
<radialGradient id="paint16_radial_48402_434" cx="0" cy="0" r="1" gradientUnits="userSpaceOnUse" gradientTransform="translate(121.991 137.905) rotate(68.9625) scale(22.3983 64.0645)">
<stop stop-color="#BC9D6A"/>
<stop offset="0.767589" stop-color="#BC9D6A" stop-opacity="0.127511"/>
<stop offset="1" stop-color="#BC9D6A" stop-opacity="0"/>
</radialGradient>
<radialGradient id="paint17_radial_48402_434" cx="0" cy="0" r="1" gradientUnits="userSpaceOnUse" gradientTransform="translate(172.703 84.0514) rotate(20.4687) scale(19.0198 55.4276)">
<stop stop-color="#BC9D6A"/>
<stop offset="0.767589" stop-color="#BC9D6A" stop-opacity="0.127511"/>
<stop offset="1" stop-color="#BC9D6A" stop-opacity="0"/>
</radialGradient>
<radialGradient id="paint18_radial_48402_434" cx="0" cy="0" r="1" gradientUnits="userSpaceOnUse" gradientTransform="translate(158.743 108.576) rotate(17.1619) scale(26.8522 41.7219)">
<stop stop-color="#BC9D6A"/>
<stop offset="0.767589" stop-color="#BC9D6A" stop-opacity="0.127511"/>
<stop offset="1" stop-color="#BC9D6A" stop-opacity="0"/>
</radialGradient>
<radialGradient id="paint19_radial_48402_434" cx="0" cy="0" r="1" gradientUnits="userSpaceOnUse" gradientTransform="translate(191.631 36.6484) rotate(28.7896) scale(14.7341 65.6571)">
<stop stop-color="#BC9D6A" stop-opacity="0.85"/>
<stop offset="0.760417" stop-color="#BC9D6A" stop-opacity="0.127511"/>
<stop offset="1" stop-color="#BC9D6A" stop-opacity="0"/>
</radialGradient>
<radialGradient id="paint20_radial_48402_434" cx="0" cy="0" r="1" gradientUnits="userSpaceOnUse" gradientTransform="translate(206.435 31.5141) rotate(85.1355) scale(14.4897 64.5679)">
<stop stop-color="#BC9D6A" stop-opacity="0.85"/>
<stop offset="0.810204" stop-color="#BC9D6A" stop-opacity="0.127511"/>
<stop offset="1" stop-color="#BC9D6A" stop-opacity="0"/>
</radialGradient>
<radialGradient id="paint21_radial_48402_434" cx="0" cy="0" r="1" gradientUnits="userSpaceOnUse" gradientTransform="translate(95.1757 155.726) rotate(36.9715) scale(13.3126 38.0772)">
<stop stop-color="#BC9D6A"/>
<stop offset="0.188174" stop-color="#BC9D6A" stop-opacity="0.508864"/>
<stop offset="0.703125" stop-color="#BC9D6A" stop-opacity="0.127511"/>
<stop offset="1" stop-color="#BC9D6A" stop-opacity="0"/>
</radialGradient>
<radialGradient id="paint22_radial_48402_434" cx="0" cy="0" r="1" gradientUnits="userSpaceOnUse" gradientTransform="translate(88.6274 168.023) rotate(-1.75033) scale(13.8457 39.602)">
<stop stop-color="#BC9D6A"/>
<stop offset="0.244792" stop-color="#BC9D6A" stop-opacity="0.508864"/>
<stop offset="0.727949" stop-color="#BC9D6A" stop-opacity="0.127511"/>
<stop offset="1" stop-color="#BC9D6A" stop-opacity="0"/>
</radialGradient>
<radialGradient id="paint23_radial_48402_434" cx="0" cy="0" r="1" gradientUnits="userSpaceOnUse" gradientTransform="translate(94.7667 183.375) rotate(-45.971) scale(11.89 79.7743)">
<stop stop-color="#BC9D6A"/>
<stop offset="0.244792" stop-color="#BC9D6A" stop-opacity="0.508864"/>
<stop offset="0.727949" stop-color="#BC9D6A" stop-opacity="0.127511"/>
<stop offset="1" stop-color="#BC9D6A" stop-opacity="0"/>
</radialGradient>
<radialGradient id="paint24_radial_48402_434" cx="0" cy="0" r="1" gradientUnits="userSpaceOnUse" gradientTransform="translate(240.936 113.044) rotate(155.008) scale(20.3343 42.4002)">
<stop stop-color="#FFE675"/>
<stop offset="0.65382" stop-color="#FFE675" stop-opacity="0.185004"/>
<stop offset="0.813038" stop-color="#FFE675" stop-opacity="0.107811"/>
<stop offset="1" stop-color="#FFE675" stop-opacity="0"/>
</radialGradient>
<radialGradient id="paint25_radial_48402_434" cx="0" cy="0" r="1" gradientUnits="userSpaceOnUse" gradientTransform="translate(258.258 131.028) rotate(117.168) scale(16.7984 36.4288)">
<stop stop-color="#FFE675"/>
<stop offset="0.6685" stop-color="#FFE675" stop-opacity="0.185004"/>
<stop offset="0.831795" stop-color="#FFE675" stop-opacity="0.0637278"/>
<stop offset="1" stop-color="#FFE675" stop-opacity="0"/>
</radialGradient>
<radialGradient id="paint26_radial_48402_434" cx="0" cy="0" r="1" gradientUnits="userSpaceOnUse" gradientTransform="translate(296.745 148.134) rotate(113.405) scale(18.3653 46.9282)">
<stop stop-color="#FFE675"/>
<stop offset="0.721175" stop-color="#FFE675" stop-opacity="0.185004"/>
<stop offset="1" stop-color="#FFE675" stop-opacity="0"/>
</radialGradient>
<radialGradient id="paint27_radial_48402_434" cx="0" cy="0" r="1" gradientUnits="userSpaceOnUse" gradientTransform="translate(313.694 158.831) rotate(154.938) scale(17.3028 44.2134)">
<stop stop-color="#FFE675"/>
<stop offset="0.721175" stop-color="#FFE675" stop-opacity="0.185004"/>
<stop offset="1" stop-color="#FFE675" stop-opacity="0"/>
</radialGradient>
<radialGradient id="paint28_radial_48402_434" cx="0" cy="0" r="1" gradientUnits="userSpaceOnUse" gradientTransform="translate(227.437 75.2454) rotate(165.272) scale(14.9134 64.3246)">
<stop offset="0.131615" stop-color="#FFE675"/>
<stop offset="0.665228" stop-color="#FFE675" stop-opacity="0.185004"/>
<stop offset="0.813948" stop-color="#FFE675" stop-opacity="0.0520478"/>
<stop offset="1" stop-color="#FFE675" stop-opacity="0"/>
</radialGradient>
<radialGradient id="paint29_radial_48402_434" cx="0" cy="0" r="1" gradientUnits="userSpaceOnUse" gradientTransform="translate(217.284 47.2474) rotate(147.095) scale(14.6327 63.1138)">
<stop offset="0.164689" stop-color="#FFE675"/>
<stop offset="0.719375" stop-color="#FFE675" stop-opacity="0.185004"/>
<stop offset="1" stop-color="#FFE675" stop-opacity="0"/>
</radialGradient>
<linearGradient id="paint30_linear_48402_434" x1="116.745" y1="61.8137" x2="79.2012" y2="101.336" gradientUnits="userSpaceOnUse">
<stop stop-color="#FFDA72"/>
<stop offset="1" stop-color="#F7A967"/>
</linearGradient>
<linearGradient id="paint31_linear_48402_434" x1="93.5754" y1="126.168" x2="93.5754" y2="82.727" gradientUnits="userSpaceOnUse">
<stop stop-color="#FDA071"/>
<stop offset="1" stop-color="#FDA071" stop-opacity="0"/>
</linearGradient>
<radialGradient id="paint32_radial_48402_434" cx="0" cy="0" r="1" gradientUnits="userSpaceOnUse" gradientTransform="translate(120.034 92.1784) rotate(-113.707) scale(12.0157 27.485)">
<stop stop-color="#EF7B54"/>
<stop offset="0.746285" stop-color="#EF7B54" stop-opacity="0.131386"/>
<stop offset="1" stop-color="#EF7B54" stop-opacity="0"/>
</radialGradient>
<radialGradient id="paint33_radial_48402_434" cx="0" cy="0" r="1" gradientUnits="userSpaceOnUse" gradientTransform="translate(83.012 113.706) rotate(-24.6417) scale(14.962 42.8192)">
<stop stop-color="#EF7B54"/>
<stop offset="0.501931" stop-color="#EF7B54" stop-opacity="0.462921"/>
<stop offset="0.802968" stop-color="#EF7B54" stop-opacity="0.131386"/>
<stop offset="1" stop-color="#EF7B54" stop-opacity="0"/>
</radialGradient>
<radialGradient id="paint34_radial_48402_434" cx="0" cy="0" r="1" gradientUnits="userSpaceOnUse" gradientTransform="translate(60.93 69.036) rotate(21.5226) scale(37.0593 55.7846)">
<stop stop-color="#CD9943" stop-opacity="0.71"/>
<stop offset="0.801992" stop-color="#CD9943" stop-opacity="0.127511"/>
<stop offset="1" stop-color="#CD9943" stop-opacity="0"/>
</radialGradient>
<radialGradient id="paint35_radial_48402_434" cx="0" cy="0" r="1" gradientUnits="userSpaceOnUse" gradientTransform="translate(66.2989 89.8918) rotate(-50.3009) scale(23.9242 51.2281)">
<stop stop-color="#CD9943" stop-opacity="0.79"/>
<stop offset="0.767589" stop-color="#CD9943" stop-opacity="0.127511"/>
<stop offset="1" stop-color="#CD9943" stop-opacity="0"/>
</radialGradient>
<radialGradient id="paint36_radial_48402_434" cx="0" cy="0" r="1" gradientUnits="userSpaceOnUse" gradientTransform="translate(76.8976 50.1726) rotate(13.4957) scale(18.9182 34.9131)">
<stop stop-color="#CD9943"/>
<stop offset="0.767589" stop-color="#CD9943" stop-opacity="0.127511"/>
<stop offset="1" stop-color="#CD9943" stop-opacity="0"/>
</radialGradient>
<radialGradient id="paint37_radial_48402_434" cx="0" cy="0" r="1" gradientUnits="userSpaceOnUse" gradientTransform="translate(89.1633 32.75) rotate(41.9335) scale(10.4018 46.3515)">
<stop stop-color="#CD9943" stop-opacity="0.85"/>
<stop offset="0.760417" stop-color="#CD9943" stop-opacity="0.127511"/>
<stop offset="1" stop-color="#CD9943" stop-opacity="0"/>
</radialGradient>
<radialGradient id="paint38_radial_48402_434" cx="0" cy="0" r="1" gradientUnits="userSpaceOnUse" gradientTransform="translate(105.727 59.9928) rotate(155.008) scale(6.54473 13.6468)">
<stop stop-color="#FFE675"/>
<stop offset="0.65382" stop-color="#FFE675" stop-opacity="0.185004"/>
<stop offset="0.813038" stop-color="#FFE675" stop-opacity="0.107811"/>
<stop offset="1" stop-color="#FFE675" stop-opacity="0"/>
</radialGradient>
<radialGradient id="paint39_radial_48402_434" cx="0" cy="0" r="1" gradientUnits="userSpaceOnUse" gradientTransform="translate(111.302 65.7814) rotate(117.168) scale(5.40669 11.7249)">
<stop stop-color="#FFE675"/>
<stop offset="0.6685" stop-color="#FFE675" stop-opacity="0.185004"/>
<stop offset="0.831795" stop-color="#FFE675" stop-opacity="0.0637278"/>
<stop offset="1" stop-color="#FFE675" stop-opacity="0"/>
</radialGradient>
<radialGradient id="paint40_radial_48402_434" cx="0" cy="0" r="1" gradientUnits="userSpaceOnUse" gradientTransform="translate(123.69 71.287) rotate(113.405) scale(5.91099 15.1042)">
<stop stop-color="#FFE675"/>
<stop offset="0.721175" stop-color="#FFE675" stop-opacity="0.185004"/>
<stop offset="1" stop-color="#FFE675" stop-opacity="0"/>
</radialGradient>
<radialGradient id="paint41_radial_48402_434" cx="0" cy="0" r="1" gradientUnits="userSpaceOnUse" gradientTransform="translate(129.145 74.73) rotate(154.938) scale(5.56904 14.2304)">
<stop stop-color="#FFE675"/>
<stop offset="0.721175" stop-color="#FFE675" stop-opacity="0.185004"/>
<stop offset="1" stop-color="#FFE675" stop-opacity="0"/>
</radialGradient>
<radialGradient id="paint42_radial_48402_434" cx="0" cy="0" r="1" gradientUnits="userSpaceOnUse" gradientTransform="translate(101.382 47.8272) rotate(165.272) scale(4.79999 20.7033)">
<stop offset="0.131615" stop-color="#FFE675"/>
<stop offset="0.665228" stop-color="#FFE675" stop-opacity="0.185004"/>
<stop offset="0.813948" stop-color="#FFE675" stop-opacity="0.0520478"/>
<stop offset="1" stop-color="#FFE675" stop-opacity="0"/>
</radialGradient>
<radialGradient id="paint43_radial_48402_434" cx="0" cy="0" r="1" gradientUnits="userSpaceOnUse" gradientTransform="translate(98.1146 38.8159) rotate(147.095) scale(4.70964 20.3136)">
<stop offset="0.164689" stop-color="#FFE675"/>
<stop offset="0.719375" stop-color="#FFE675" stop-opacity="0.185004"/>
<stop offset="1" stop-color="#FFE675" stop-opacity="0"/>
</radialGradient>
<radialGradient id="paint44_radial_48402_434" cx="0" cy="0" r="1" gradientUnits="userSpaceOnUse" gradientTransform="translate(105.454 195.535) rotate(127.221) scale(74.519 72.5673)">
<stop offset="0.364601" stop-color="#FFBC64"/>
<stop offset="1" stop-color="#FF8F6B"/>
</radialGradient>
<radialGradient id="paint45_radial_48402_434" cx="0" cy="0" r="1" gradientUnits="userSpaceOnUse" gradientTransform="translate(105.742 250.153) rotate(-110.523) scale(11.8026 33.1715)">
<stop stop-color="#FF7576"/>
<stop offset="0.746285" stop-color="#FF7576" stop-opacity="0.131386"/>
<stop offset="1" stop-color="#FF7576" stop-opacity="0"/>
</radialGradient>
<radialGradient id="paint46_radial_48402_434" cx="0" cy="0" r="1" gradientUnits="userSpaceOnUse" gradientTransform="translate(61.4409 280.137) rotate(-16.7267) scale(9.17174 47.5148)">
<stop stop-color="#FF7576"/>
<stop offset="0.501931" stop-color="#FF7576" stop-opacity="0.462921"/>
<stop offset="0.802968" stop-color="#FF7576" stop-opacity="0.131386"/>
<stop offset="1" stop-color="#FF7576" stop-opacity="0"/>
</radialGradient>
<radialGradient id="paint47_radial_48402_434" cx="0" cy="0" r="1" gradientUnits="userSpaceOnUse" gradientTransform="translate(52.1705 255.562) rotate(-39.7418) scale(6.57557 12.2567)">
<stop stop-color="#FF7576"/>
<stop offset="0.501931" stop-color="#FF7576" stop-opacity="0.462921"/>
<stop offset="0.802968" stop-color="#FF7576" stop-opacity="0.131386"/>
<stop offset="1" stop-color="#FF7576" stop-opacity="0"/>
</radialGradient>
<radialGradient id="paint48_radial_48402_434" cx="0" cy="0" r="1" gradientUnits="userSpaceOnUse" gradientTransform="translate(40.8008 248.502) rotate(-64.6261) scale(7.20479 24.1027)">
<stop stop-color="#FF7576"/>
<stop offset="0.501931" stop-color="#FF7576" stop-opacity="0.462921"/>
<stop offset="1" stop-color="#FF7576" stop-opacity="0"/>
</radialGradient>
<radialGradient id="paint49_radial_48402_434" cx="0" cy="0" r="1" gradientUnits="userSpaceOnUse" gradientTransform="translate(61.3859 275.601) rotate(-15.0685) scale(2.68167 19.5669)">
<stop stop-color="#FF7576"/>
<stop offset="0.501931" stop-color="#FF7576" stop-opacity="0.462921"/>
<stop offset="1" stop-color="#FF7576" stop-opacity="0"/>
</radialGradient>
<radialGradient id="paint50_radial_48402_434" cx="0" cy="0" r="1" gradientUnits="userSpaceOnUse" gradientTransform="translate(36.4244 247.767) rotate(-61.9908) scale(8.36876 29.8854)">
<stop stop-color="#FF7576"/>
<stop offset="0.501931" stop-color="#EF7B54" stop-opacity="0.462921"/>
<stop offset="0.802968" stop-color="#FF7576" stop-opacity="0.131386"/>
<stop offset="1" stop-color="#FF7576" stop-opacity="0"/>
</radialGradient>
<radialGradient id="paint51_radial_48402_434" cx="0" cy="0" r="1" gradientUnits="userSpaceOnUse" gradientTransform="translate(69.3382 293.069) rotate(-75.1414) scale(6.75378 46.2949)">
<stop stop-color="#FF7576"/>
<stop offset="0.501931" stop-color="#FF7576" stop-opacity="0.462921"/>
<stop offset="0.802968" stop-color="#FF7576" stop-opacity="0.131386"/>
<stop offset="1" stop-color="#FF7576" stop-opacity="0"/>
</radialGradient>
<radialGradient id="paint52_radial_48402_434" cx="0" cy="0" r="1" gradientUnits="userSpaceOnUse" gradientTransform="translate(35.8024 222.29) rotate(68.4265) scale(4.08962 19.4167)">
<stop stop-color="#FF7576"/>
<stop offset="0.501931" stop-color="#FF7576" stop-opacity="0.462921"/>
<stop offset="0.802968" stop-color="#FF7576" stop-opacity="0.131386"/>
<stop offset="1" stop-color="#FF7576" stop-opacity="0"/>
</radialGradient>
<radialGradient id="paint53_radial_48402_434" cx="0" cy="0" r="1" gradientUnits="userSpaceOnUse" gradientTransform="translate(50.6931 213.761) rotate(45.4815) scale(5.66567 7.54193)">
<stop stop-color="#FF7576"/>
<stop offset="0.501931" stop-color="#FF7576" stop-opacity="0.462921"/>
<stop offset="0.802968" stop-color="#FF7576" stop-opacity="0.131386"/>
<stop offset="1" stop-color="#FF7576" stop-opacity="0"/>
</radialGradient>
<radialGradient id="paint54_radial_48402_434" cx="0" cy="0" r="1" gradientUnits="userSpaceOnUse" gradientTransform="translate(56.5236 200.549) rotate(15.5241) scale(4.2314 19.0087)">
<stop stop-color="#FF7576"/>
<stop offset="0.501931" stop-color="#FF7576" stop-opacity="0.462921"/>
<stop offset="0.802968" stop-color="#FF7576" stop-opacity="0.131386"/>
<stop offset="1" stop-color="#FF7576" stop-opacity="0"/>
</radialGradient>
<radialGradient id="paint55_radial_48402_434" cx="0" cy="0" r="1" gradientUnits="userSpaceOnUse" gradientTransform="translate(61.4387 185.014) rotate(11.3099) scale(4.12243 18.5192)">
<stop stop-color="#FF7576"/>
<stop offset="0.501931" stop-color="#FF7576" stop-opacity="0.462921"/>
<stop offset="0.802968" stop-color="#FF7576" stop-opacity="0.131386"/>
<stop offset="1" stop-color="#FF7576" stop-opacity="0"/>
</radialGradient>
<radialGradient id="paint56_radial_48402_434" cx="0" cy="0" r="1" gradientUnits="userSpaceOnUse" gradientTransform="translate(65.6812 176.939) rotate(28.8649) scale(3.83009 17.2059)">
<stop stop-color="#FF7576"/>
<stop offset="0.451537" stop-color="#FF7576" stop-opacity="0.462921"/>
<stop offset="0.716342" stop-color="#FF7576" stop-opacity="0.131386"/>
<stop offset="1" stop-color="#FF7576" stop-opacity="0"/>
</radialGradient>
<radialGradient id="paint57_radial_48402_434" cx="0" cy="0" r="1" gradientUnits="userSpaceOnUse" gradientTransform="translate(23.5331 228.891) rotate(36.0736) scale(5.04833 22.6786)">
<stop stop-color="#FF7576"/>
<stop offset="0.451537" stop-color="#FF7576" stop-opacity="0.462921"/>
<stop offset="0.716342" stop-color="#FF7576" stop-opacity="0.131386"/>
<stop offset="1" stop-color="#FF7576" stop-opacity="0"/>
</radialGradient>
<radialGradient id="paint58_radial_48402_434" cx="0" cy="0" r="1" gradientUnits="userSpaceOnUse" gradientTransform="translate(21.8194 232.216) scale(4.96446 22.3019)">
<stop stop-color="#FF7576"/>
<stop offset="0.451537" stop-color="#FF7576" stop-opacity="0.462921"/>
<stop offset="0.716342" stop-color="#FF7576" stop-opacity="0.131386"/>
<stop offset="1" stop-color="#FF7576" stop-opacity="0"/>
</radialGradient>
<radialGradient id="paint59_radial_48402_434" cx="0" cy="0" r="1" gradientUnits="userSpaceOnUse" gradientTransform="translate(35.0066 220.717) rotate(68.9625) scale(10.0527 28.7531)">
<stop stop-color="#CD9943"/>
<stop offset="0.767589" stop-color="#CD9943" stop-opacity="0.127511"/>
<stop offset="1" stop-color="#CD9943" stop-opacity="0"/>
</radialGradient>
<radialGradient id="paint60_radial_48402_434" cx="0" cy="0" r="1" gradientUnits="userSpaceOnUse" gradientTransform="translate(57.7671 196.547) rotate(20.4687) scale(8.53637 24.8767)">
<stop stop-color="#CD9943"/>
<stop offset="0.767589" stop-color="#CD9943" stop-opacity="0.127511"/>
<stop offset="1" stop-color="#CD9943" stop-opacity="0"/>
</radialGradient>
<radialGradient id="paint61_radial_48402_434" cx="0" cy="0" r="1" gradientUnits="userSpaceOnUse" gradientTransform="translate(51.5016 207.554) rotate(17.1619) scale(12.0517 18.7254)">
<stop stop-color="#CD9943"/>
<stop offset="0.767589" stop-color="#CD9943" stop-opacity="0.127511"/>
<stop offset="1" stop-color="#CD9943" stop-opacity="0"/>
</radialGradient>
<radialGradient id="paint62_radial_48402_434" cx="0" cy="0" r="1" gradientUnits="userSpaceOnUse" gradientTransform="translate(66.262 175.272) rotate(28.7896) scale(6.61289 29.4679)">
<stop stop-color="#CD9943" stop-opacity="0.85"/>
<stop offset="0.760417" stop-color="#CD9943" stop-opacity="0.127511"/>
<stop offset="1" stop-color="#CD9943" stop-opacity="0"/>
</radialGradient>
<radialGradient id="paint63_radial_48402_434" cx="0" cy="0" r="1" gradientUnits="userSpaceOnUse" gradientTransform="translate(72.9062 172.968) rotate(85.1355) scale(6.50319 28.979)">
<stop stop-color="#CD9943" stop-opacity="0.85"/>
<stop offset="0.810204" stop-color="#CD9943" stop-opacity="0.127511"/>
<stop offset="1" stop-color="#CD9943" stop-opacity="0"/>
</radialGradient>
<radialGradient id="paint64_radial_48402_434" cx="0" cy="0" r="1" gradientUnits="userSpaceOnUse" gradientTransform="translate(22.9715 228.716) rotate(36.9715) scale(5.97489 17.0896)">
<stop stop-color="#CD9943"/>
<stop offset="0.188174" stop-color="#CD9943" stop-opacity="0.508864"/>
<stop offset="0.703125" stop-color="#CD9943" stop-opacity="0.127511"/>
<stop offset="1" stop-color="#CD9943" stop-opacity="0"/>
</radialGradient>
<radialGradient id="paint65_radial_48402_434" cx="0" cy="0" r="1" gradientUnits="userSpaceOnUse" gradientTransform="translate(20.0326 234.235) rotate(-1.75033) scale(6.21416 17.774)">
<stop stop-color="#CD9943"/>
<stop offset="0.244792" stop-color="#CD9943" stop-opacity="0.508864"/>
<stop offset="0.727949" stop-color="#CD9943" stop-opacity="0.127511"/>
<stop offset="1" stop-color="#CD9943" stop-opacity="0"/>
</radialGradient>
<radialGradient id="paint66_radial_48402_434" cx="0" cy="0" r="1" gradientUnits="userSpaceOnUse" gradientTransform="translate(22.788 241.125) rotate(-45.971) scale(5.33641 35.8039)">
<stop stop-color="#CD9943"/>
<stop offset="0.244792" stop-color="#CD9943" stop-opacity="0.508864"/>
<stop offset="0.727949" stop-color="#CD9943" stop-opacity="0.127511"/>
<stop offset="1" stop-color="#CD9943" stop-opacity="0"/>
</radialGradient>
<radialGradient id="paint67_radial_48402_434" cx="0" cy="0" r="1" gradientUnits="userSpaceOnUse" gradientTransform="translate(88.391 209.559) rotate(155.008) scale(9.12632 19.0298)">
<stop stop-color="#FFE675"/>
<stop offset="0.65382" stop-color="#FFE675" stop-opacity="0.185004"/>
<stop offset="0.813038" stop-color="#FFE675" stop-opacity="0.107811"/>
<stop offset="1" stop-color="#FFE675" stop-opacity="0"/>
</radialGradient>
<radialGradient id="paint68_radial_48402_434" cx="0" cy="0" r="1" gradientUnits="userSpaceOnUse" gradientTransform="translate(96.1651 217.631) rotate(117.168) scale(7.53937 16.3498)">
<stop stop-color="#FFE675"/>
<stop offset="0.6685" stop-color="#FFE675" stop-opacity="0.185004"/>
<stop offset="0.831795" stop-color="#FFE675" stop-opacity="0.0637278"/>
<stop offset="1" stop-color="#FFE675" stop-opacity="0"/>
</radialGradient>
<radialGradient id="paint69_radial_48402_434" cx="0" cy="0" r="1" gradientUnits="userSpaceOnUse" gradientTransform="translate(113.439 225.308) rotate(113.405) scale(8.2426 21.0621)">
<stop stop-color="#FFE675"/>
<stop offset="0.721175" stop-color="#FFE675" stop-opacity="0.185004"/>
<stop offset="1" stop-color="#FFE675" stop-opacity="0"/>
</radialGradient>
<radialGradient id="paint70_radial_48402_434" cx="0" cy="0" r="1" gradientUnits="userSpaceOnUse" gradientTransform="translate(121.046 230.11) rotate(154.938) scale(7.76577 19.8436)">
<stop stop-color="#FFE675"/>
<stop offset="0.721175" stop-color="#FFE675" stop-opacity="0.185004"/>
<stop offset="1" stop-color="#FFE675" stop-opacity="0"/>
</radialGradient>
<radialGradient id="paint71_radial_48402_434" cx="0" cy="0" r="1" gradientUnits="userSpaceOnUse" gradientTransform="translate(82.3323 192.595) rotate(165.272) scale(6.69337 28.8698)">
<stop offset="0.131615" stop-color="#FFE675"/>
<stop offset="0.665228" stop-color="#FFE675" stop-opacity="0.185004"/>
<stop offset="0.813948" stop-color="#FFE675" stop-opacity="0.0520478"/>
<stop offset="1" stop-color="#FFE675" stop-opacity="0"/>
</radialGradient>
<radialGradient id="paint72_radial_48402_434" cx="0" cy="0" r="1" gradientUnits="userSpaceOnUse" gradientTransform="translate(77.7757 180.029) rotate(147.095) scale(6.56737 28.3264)">
<stop offset="0.164689" stop-color="#FFE675"/>
<stop offset="0.719375" stop-color="#FFE675" stop-opacity="0.185004"/>
<stop offset="1" stop-color="#FFE675" stop-opacity="0"/>
</radialGradient>
</defs>
</svg>
